<?xml version="1.0" encoding="utf-8"?>
<!-- Generator: Adobe Illustrator 16.0.0, SVG Export Plug-In . SVG Version: 6.00 Build 0)  -->
<!DOCTYPE svg PUBLIC "-//W3C//DTD SVG 1.1//EN" "http://www.w3.org/Graphics/SVG/1.1/DTD/svg11.dtd">
<svg version="1.1" id="Pattern" xmlns="http://www.w3.org/2000/svg" xmlns:xlink="http://www.w3.org/1999/xlink" x="0px" y="0px"
	 width="800px" height="800px" viewBox="0 0 800 800" enable-background="new 0 0 800 800" xml:space="preserve">
<pattern  width="800" height="800" patternUnits="userSpaceOnUse" id="Nueva_muestra_de_motivo_6" viewBox="0 -800 800 800" overflow="visible">
	<g>
		<polygon fill="none" points="0,0 800,0 800,-800 0,-800 		"/>
		<path fill="#F5F5F5" d="M88.154-361.971c24.842,13.789,54.816-3.302,65.814-26.917c11.136-23.91,1.837-53.034-21.253-65.976
			c-23.075-12.934-53.394-2.724-64.923,20.778c-0.483,0.985-1.223,1.535-2.032,1.749c-5.157,12.147-6.614,23.335-2.73,36.597
			C67.008-382.156,75.554-368.965,88.154-361.971z"/>
		<path fill="#F5F5F5" d="M44.781-10.575c12.593-0.893,25.865-2.272,36.116-10.253c0.082-0.063,0.166-0.108,0.249-0.161
			c-0.012-0.388,0.073-0.769,0.212-1.123c-18.53-11.437-43.737-8.458-64.585-7.536C11.095-29.396,5.515-28.934,0-28.296v18.205
			c2.764,0.083,5.529,0.129,8.291,0.154C20.438-9.824,32.658-9.715,44.781-10.575z"/>
		<path fill="#F5F5F5" d="M84.206-17.451C76.568-9.217,64.374-7.455,53.762-6.157C40.03-4.478,26.131-4.596,12.319-4.641
			C8.216-4.655,4.106-4.702,0-4.826V0h103.75C97.712-6.246,91.247-12.109,84.206-17.451z"/>
		<path fill="#F5F5F5" d="M56.001-76.126c-0.109-0.003-0.216,0.013-0.326-0.003c-2.947-0.445-4.595-3.72-3.852-6.42
			c-0.15-0.33-0.251-0.703-0.271-1.13c-1.075-22.66-1.786-45.335-2.081-68.019c-0.294-22.583-1.151-45.563,1.278-68.05
			c0.075-0.692,0.408-1.177,0.839-1.492c-0.248-1.167,0.256-2.433,1.857-2.896c8.268-2.394,17.641-7.504,17.243-17.583
			c-0.377-9.567-8.289-13.19-16.563-14.5c-14.893-2.358-30.604-2.196-45.652-2.341c-2.665-0.025-5.515-0.129-8.473-0.238v24.074
			c2.687-0.022,5.373-0.044,8.06-0.069c7.93-0.073,15.86-0.144,23.79-0.225c3.739-0.038,7.533,0.104,11.266-0.13
			c2.115-0.014,4.204-0.271,6.267-0.771c5.854-1.22,6.472-4.613,1.855-10.18c-3.234,0.876-4.587-4.093-1.379-5.005
			c10.454-2.972,14.417,10.017,7.478,16.527c-4.141,3.885-10.014,4.329-15.393,4.437c-9.307,0.187-18.627,0.087-27.936,0.135
			c-4.669,0.024-9.338,0.056-14.007,0.083V-34.14c6.613-0.542,13.175-0.86,19.544-1.103c21.298-0.813,48.732-4.084,66.692,9.981
			c1.157,0.907,1.017,2.301,0.29,3.319C95.586-15.53,103.732-8.085,111.222,0h13.788C103.891-26.979,81.371-52.772,56.001-76.126z"
			/>
		<path fill="#F5F5F5" d="M46.699-513.079c6.805-12.991-0.311-27.373-12.67-33.828c-9.144-4.775-30.116,0.492-29.095,13.357
			c0.162,2.027-1.666,2.964-3.311,2.625c-0.42,6.151,0.873,12.548,3.947,17.82c0.852,0.471,1.445,1.409,1.575,2.357
			c2.097,2.825,4.773,5.215,8.075,6.878C26.253-498.312,40.837-501.889,46.699-513.079z"/>
		<path fill="#F5F5F5" d="M81.383-458.829c-11.824-14.379-21.285-31.45-31.123-47.215c-2.852,3.705-6.529,6.629-10.685,8.617
			c6.108,7.092,10.475,16.164,15.596,23.97c5.114,7.794,10.599,15.433,15.475,23.394C73.837-453.437,77.469-456.361,81.383-458.829z
			"/>
		<path fill="#F5F5F5" d="M25.491-386.296c10.137-2.584,20.57-5.939,30.983-7.637c-1.029-3.398-1.855-6.881-2.352-10.373
			c-12.127,4.313-25.461,6.646-38.012,9.25c-5.35,1.11-10.727,2.127-16.111,3.067v12.931c3.006-1.009,5.764-2.061,7.595-2.558
			C13.545-383.23,19.517-384.773,25.491-386.296z"/>
		<path fill="#F5F5F5" d="M21.562-401.897c10.648-2.494,21.268-5.9,32.036-7.822c-0.435-9.404,1.666-18.405,7.825-25.002
			c-0.23-0.726-0.213-1.557,0.219-2.437c1.794-3.66,4.005-7.055,6.552-10.147c-6.184-6.819-11.628-14.426-16.825-21.977
			c-5.633-8.185-12.767-17.041-16.164-26.452c-6.02,1.817-12.687,1.832-19.11-0.336C10-498.126,5.131-501.893,1.67-506.619
			c-0.552,0.189-1.11,0.366-1.67,0.537v108.972c2.295-0.434,4.104-0.773,4.494-0.861C10.189-399.249,15.878-400.566,21.562-401.897z
			"/>
		<path fill="#F5F5F5" d="M705.707-281.782c4.54,2.243,10.129,2.494,14.054-1.15c5.1-4.733,4.549-12.987-0.556-17.421
			c-5.875-5.102-15.204-6.759-20.274,0.298c-4.72,6.57-0.562,14.082,5.865,17.282C705.242-282.551,705.537-282.191,705.707-281.782z
			"/>
		<path fill="#F5F5F5" d="M169.298-641.132c14.657-0.971,30.262-4.762,33.863-21.158c6.133-27.928-18.033-55.185-32.854-76.171
			c-14.713-20.835-29.622-41.513-45.298-61.539h-13.788c8.99,9.705,17.031,20.337,24.526,31.255
			c7.308,10.646,14.17,21.588,21.139,32.457c7.38,11.507,16.239,22.426,22.68,34.479c8.882,16.622,7.598,37.987-12.41,44.986
			c-11.051,3.866-23.805,4.048-35.342,5.264c-14.106,1.486-28.226,2.831-42.358,4.036c-29.773,2.538-59.603,4.43-89.458,5.722
			v10.701c39.926-2.181,79.845-5.027,119.7-7.253C136.23-639.277,152.779-640.037,169.298-641.132z"/>
		<path fill="#F5F5F5" d="M706.661-266.852c0.591-3.161,1.231-6.31,1.886-9.458c-1.726-0.457-3.369-1.212-4.821-2.273
			c-0.286,2.713-1.312,5.446-2.119,7.994c-0.988,3.117-2.077,6.253-3.341,9.29c2.518,0.591,4.961,1.483,7.27,2.662
			C705.302-261.346,706.168-264.219,706.661-266.852z"/>
		<path fill="#F5F5F5" d="M577.069-520.006c11.635,0.618,24.3,1.302,35.405,5.077c6.03,2.049,12.251,5.912,14.229,12.381
			c2.178,7.123-3.29,15.167-11.158,13.041c-0.838-0.227-1.481,0.052-1.876,0.541c-0.878,0.127-1.707,0.754-1.784,1.882
			c-2.531,37.134-5.652,74.227-9.537,111.244c-3.87,36.871-7.438,74.141-13.779,110.682c-2.711,15.623-9.879,35.553-28.143,37.964
			c-18.781,2.479-29.235-17.738-30.578-33.478c-1.441-16.902,1.839-34.538,3.583-51.321c1.925-18.528,3.969-37.043,6.126-55.546
			c4.868-41.756,10.938-83.337,16.203-125.038c0.102-0.019,0.205-0.032,0.306-0.053c1.221-0.252,1.007-1.907-0.005-2.258
			c-0.179-0.062-0.363-0.109-0.543-0.167c-0.437-0.425-1.142-0.61-1.771-0.505c-3.625-0.916-7.406-1.355-10.655-3.377
			c-6.339-3.947-5.502-11.673-0.375-16.379C550.906-522.833,566.914-520.545,577.069-520.006z M601.084-402.338
			c-7.546-7.266-19.785-10.409-30-10.543c-2.123-0.028-18.35,0.903-17.034,5.26c-0.458-0.164-1.048-0.005-1.174,0.571
			c-2.91,13.219-4.234,26.785-6.028,40.191c-1.751,13.088-3.569,26.167-5.3,39.257c-1.636,12.372-3.303,24.751-4.236,37.2
			c-0.855,11.409-1.751,23.526,0.319,34.854c1.58,8.648,6.203,17.419,14.766,20.856c8.37,3.359,17.154-0.574,22.944-6.859
			c7.104-7.71,10.067-18.114,11.617-28.25c1.901-12.435,2.835-25.065,4.181-37.57c3.267-30.361,6.503-60.726,9.799-91.084
			c0.068-0.633-0.165-1.082-0.539-1.353C601.395-400.133,602.032-401.425,601.084-402.338z M565.803-503.815
			c-3.566-0.478-9.126-0.638-12.649-2.867c-1.208-1.323-2.083-3.007-1.101-4.773c0.906-1.629,3.354-2.58,5.121-2.016
			c1.117,0.356,1.787-1.308,0.79-1.885c-3.176-1.839-7.212-1.442-9.297,1.911c-1.948,3.133-1.026,7.972,2.252,9.839
			c0.38,0.217,0.76,0.284,1.114,0.249c5.044,3.764,16.24,3.643,20.461,4.214c13.274,1.795,26.601,4.135,39.95,5.248
			c0.308,0.025,0.574-0.039,0.805-0.157c3.069,0.442,6.212-1.042,7.456-4.379c1.613-4.33-2.002-11.39-7.253-10.234
			c-1.535,0.338-1.76,2.566-0.441,3.315c1.107,0.628,2.304,0.813,3.162,1.845c0.849,1.02,1.284,2.54,0.77,3.807
			c-0.49,1.205-1.916,2.168-3.403,2.571c-0.176-0.131-0.39-0.229-0.645-0.276c-10.475-1.944-21.188-2.969-31.748-4.372
			C576.034-502.455,570.917-503.129,565.803-503.815z"/>
		<path fill="#F5F5F5" d="M345.145-436.726c10.822,10.752,22.29,20.982,35.225,29.145c6.153,3.882,12.609,7.257,19.416,9.844
			c6.763,2.57,13.979,3.274,20.71,5.67c0.199,0.071,0.377,0.173,0.544,0.286c0.028-0.012,0.058-0.019,0.086-0.03
			c-0.249-0.321-0.443-0.697-0.552-1.138c-1.89-7.712-9.137-13.047-14.578-18.402c-5.517-5.429-11.085-10.806-16.701-16.133
			c-11.231-10.654-22.649-21.11-34.249-31.362c-22.361-19.763-46.018-37.953-68.592-57.442
			C296.912-484.56,321.962-459.761,345.145-436.726z"/>
		<path fill="#F5F5F5" d="M222.178-452.163c4.008-15.57,11.925-30.064,23.3-41.476c10.482-10.517,23.122-17.102,36.482-22.958
			c-0.04,0.26-0.045,0.542,0.013,0.857c6.302,34.389,36.018,61.604,59.926,85.064c11.255,11.044,23.256,21.58,36.774,29.785
			c11,6.677,25.657,14.313,39.04,14.319c-21.154,44.885-73.471,72.66-122.392,58.438
			C243.143-343.302,208.435-398.777,222.178-452.163z M385.785-367.142c3.931,1.201,9.157-0.446,11.102-4.25
			c0.955-1.868-1.252-4.356-3.016-2.611c-1.608,1.592-3.408,2.908-5.822,2.626c-1.963-0.23-3.286-1.612-3.54-3.557
			c-0.216-1.653,0.406-3.581,2.247-3.904c2.086-0.367,4.229,1.238,4.393,3.312c0.15,1.924,3.049,1.536,3.251-0.213
			c0.47-4.062-2.964-7.322-6.895-7.608c-4.233-0.309-7.449,3.178-7.698,7.248C379.564-372.12,381.914-368.324,385.785-367.142z
			 M360.755-362.144c0.005,3.54,2.247,6.866,5.773,7.695c3.656,0.86,7.699-0.929,9.439-4.276c1.272-2.446-2.273-4.878-3.624-2.402
			c-1.615,2.961-6.734,3.59-7.165-0.572c-0.16-1.541,0.531-2.979,2.103-3.345c1.442-0.335,3.698,0.275,4.479,1.66
			c0.599,1.062,2.308,0.536,2.061-0.716c-0.651-3.296-3.449-5.316-6.876-5.022C363.324-368.812,360.75-365.724,360.755-362.144z
			 M262.158-402.368c-1.096,0.602-1.441,2.44-0.182,3.118c1.803,0.97,0.476,2.669-1.044,3.322c-1.866,0.802-4.207,0.478-5.85-0.704
			c-4.475-3.219-0.038-9.755,4.571-9.435c2.36,0.164,2.46-3.173,0.247-3.579c-4.775-0.878-9.388,2.452-10.874,6.94
			c-1.546,4.671,1.063,9.436,5.513,11.23c3.979,1.605,9.425,0.847,11.848-3.026C268.164-397.343,266.796-404.919,262.158-402.368z
			 M276.73-472.504c-3.24,3.054-3.23,8.466-0.358,11.76c2.865,3.285,7.801,3.582,11.288,1.13c1.675-1.178,3.567-3.268,2.317-5.358
			c-1.234-2.063-3.973-2.835-5.606-0.882c-0.472,0.564-0.345,1.629,0.154,2.136c0.099,0.101,0.231,0.192,0.371,0.282
			c-2.15,1.262-5.173,0.454-5.814-2.372c-0.857-3.779,3.512-6.159,6.595-4.255c1.855,1.146,3.442-1.424,1.832-2.763
			C284.484-475.339,279.605-475.214,276.73-472.504z M252.06-482.255c1.192,6.188,6.612,10.638,13,9.668
			c6.043-0.917,11.131-6.169,10.657-12.417c-0.235-3.097-4.971-2.51-5.267,0.346c-0.783,7.554-11.84,9.25-12.98,0.896
			c-1.257-9.212,10.99-11.097,15.388-4.251c1.236,1.923,4.212,0.524,3.225-1.634c-2.693-5.883-9.522-8.973-15.751-7.181
			C254.107-495.038,250.873-488.421,252.06-482.255z M247.939-427.466c5.137,0.716,11.011-2.607,11.093-8.238
			c0.064-4.443-4.103-9.7-8.946-8.333c-2.171,0.613-2.186,3.956,0.27,4.111c2.275,0.144,4.231,1.699,4.112,4.201
			c-0.138,2.924-3.754,4.13-6.215,3.707c-2.989-0.515-5.408-3.56-5.29-6.599c0.139-3.565,3.584-5.855,6.933-5.463
			c1.507,0.176,1.904-2.077,0.517-2.562c-5.042-1.767-10.614,1.761-11.491,6.995C237.963-433.924,242.226-428.263,247.939-427.466z
			 M224.28-402.457c1.354,5.432,6.341,9.21,11.985,7.933c4.895-1.108,9.949-6.487,8.364-11.812c-0.62-2.081-3.926-2.179-4.031,0.265
			c-0.145,3.371-1.96,6.391-5.624,6.875c-3.223,0.426-5.571-2.273-6.001-5.258c-0.468-3.249,1.191-6.17,4.384-7.144
			c3.47-1.057,6.862,0.508,9.469,2.716c1.227,1.039,2.751-0.693,2.179-1.939c-2.345-5.097-8.921-6.757-13.939-5.058
			C225.49-413.991,222.896-408.009,224.28-402.457z"/>
		<path fill="#F5F5F5" d="M568.449-409.362c-1.08,0.031-11.249,1.279-12.399,1.909c0.345,0.166,0.587,0.561,0.479,0.97
			c-0.899,3.377,20.583,6.524,22.535,6.708c6.278,0.59,12.742-0.855,18.891,0.017c0.063,0.009,0.113,0.039,0.17,0.059
			c0.24-0.185,0.524-0.298,0.814-0.36c-6.424-3.48-12.188-6.9-19.504-8.367C575.816-409.152,572.137-409.466,568.449-409.362z"/>
		<path fill="#F5F5F5" d="M651.344-267.431c0.196,0.064,0.393,0.155,0.586,0.3c5.765,4.304,11.099,9.803,14.864,16.004
			c2.02-1.949,4.327-3.605,6.874-4.926c-3.842-3.139-7.535-6.463-11.239-9.762c-1.898-1.691-4.859-3.569-6.393-5.92
			C654.708-270.046,653.127-268.57,651.344-267.431z"/>
		<path fill="#F5F5F5" d="M662.887-216.724c5.437,13.906,22.203,23.554,36.806,18.154c14.328-5.298,21.705-25.622,17.536-39.582
			c-5.11-17.109-24.407-24.303-39.892-16.218c-0.493,0.257-0.95,0.303-1.351,0.208C664.561-245.707,657.429-230.686,662.887-216.724
			z"/>
		<path fill="#F5F5F5" d="M642.438-267.235c5.522-2.094,10.518-5.776,12.578-11.541c1.548-4.333,0.558-8.163-3.138-10.948
			c-2.843-2.142-5.914-3.916-9.54-4.081c-7.337-0.335-13.624,5.639-13.308,13.056C629.389-272.309,635.946-270.103,642.438-267.235z
			"/>
		<path fill="#F5F5F5" d="M597.294-397.183c-2.426,22.912-4.918,45.817-7.339,68.729c-1.252,11.85-2.527,23.697-3.792,35.545
			c-1.155,10.82-1.8,21.965-4.805,32.475c-2.879,10.067-10.01,23.015-21.993,23.429c-13.363,0.461-18.197-14.926-18.937-25.566
			c-1.562-22.468,2.018-45.187,4.923-67.4c3.185-24.346,7.698-49.037,9.101-73.586c2.677,2.819,11.151,5.109,12.551,5.467
			C575.756-395.854,588.544-393.576,597.294-397.183z M555.122-320.324c0.17,3.115,2.883,5.271,5.892,5.406
			c3.092,0.138,5.676-2.083,5.808-5.207c0.086-2.048-1.881-6.542-4.587-5.268c-0.394,0.186-0.444,0.695-0.28,1.042
			c0.342,0.724,1.151,1.032,1.583,1.717c0.404,0.639,0.596,1.405,0.579,2.159c-0.041,1.749-1.386,2.907-3.122,2.803
			c-4.335-0.26-4.17-6-0.62-7.433c1.049-0.424,0.683-2.033-0.476-1.741C557.001-326.116,554.959-323.322,555.122-320.324z
			 M549.334-295.309c2.589,0.596,5.436-0.526,6.248-3.194c0.644-2.115-0.167-5.107-2.807-5.036c-1.1,0.03-1.303,1.595-0.246,1.91
			c1.157,0.345,1.003,1.829,0.525,2.688c-0.676,1.213-2.298,1.414-3.522,0.985c-3.093-1.083-2.065-5.148,0.698-5.917
			c0.429-0.119,0.423-0.741-0.002-0.861c-2.469-0.7-4.615,1.268-5.06,3.674C544.654-298.271,546.689-295.917,549.334-295.309z
			 M550.095-261.57c1.611-0.736,3.253-2.686,2.352-4.522c-0.344-0.702-1.378-0.467-1.58,0.208c-0.298,0.994-0.476,1.708-1.545,2.13
			c-0.759,0.3-1.968,0.361-2.384-0.504c-0.705-1.468,1.26-3.53,2.728-3.249c0.706,0.135,1.158-0.797,0.501-1.196
			c-3.458-2.101-7.388,2.702-5.305,5.909C546.007-261.029,548.284-260.743,550.095-261.57z M558.578-254.757
			c-0.545-1.375-2.524-0.88-2.238,0.611c0.681,3.549-3.444,6.823-6.162,3.58c-2.783-3.322,1.611-7.229,5.057-5.82
			c0.711,0.291,1.051-0.792,0.493-1.178c-2.525-1.749-5.66-1.455-7.77,0.873c-2.048,2.26-1.749,5.583,0.149,7.833
			c1.901,2.253,5.108,3.023,7.685,1.446C558.151-248.855,559.634-252.092,558.578-254.757z M568.371-287.892
			c-1.457,0.513-0.895,2.697,0.638,2.334c3.884-0.921,3.606,5.384,2.557,7.422c-1.323,2.568-4.006,4.119-6.893,3.428
			c-5.819-1.394-5.695-9.744,0.262-10.734c0.839-0.139,0.628-1.478-0.201-1.461c-3.991,0.083-7.161,3.449-7.117,7.455
			c0.047,4.323,4.153,7.519,8.278,7.624c4.514,0.115,8.197-3.513,9.021-7.809C575.646-283.448,573.222-289.6,568.371-287.892z
			 M583.684-385.401c-1.37,1.916-1.228,4.671,0.876,5.997c1.804,1.138,4.312,0.866,5.938-0.462c1.672-1.365,3.171-4.524,2.376-6.676
			c-0.251-0.681-1.106-0.821-1.521-0.202c-0.76,1.13-0.784,2.611-1.521,3.78c-0.726,1.148-1.966,2.021-3.379,1.616
			c-1.6-0.459-1.28-2.216-0.368-3.213c1.049-1.146,2.883-1.555,4.318-2.017c0.676-0.217,0.51-1.127-0.164-1.188
			C587.802-387.987,585.2-387.524,583.684-385.401z"/>
		<path fill="#F5F5F5" d="M732.469-439.485c-2.512,1.079-5.09,1.978-7.708,2.715c2.884,5.718,5.521,11.547,8.146,17.389
			c2.138,4.756,5.186,9.598,6.777,14.691c5.28-4.258,11.787-7.087,18.502-7.94c-3.001-4.359-4.791-9.787-6.698-14.61
			c-2.535-6.414-4.679-12.986-6.418-19.662C741.264-443.962,737.054-441.454,732.469-439.485z"/>
		<path fill="#F5F5F5" d="M795.977-529.921c-4.717,1.668-10.282,2.2-14.834,2.984c-6.374,1.098-12.803,1.864-19.25,2.379
			c3.151,6.736,5.277,13.862,6.178,20.882c5.791-1.931,11.715-3.536,17.573-5.224c4.134-1.191,8.364-2.665,12.639-3.613
			C795.949-517.884,795.12-523.934,795.977-529.921z"/>
		<path fill="#F5F5F5" d="M133.327-657.54c10.267-1.134,21.31-1.367,31.192-4.521c31.274-9.981,5.736-44.218-4.67-60.085
			c-17.536-26.738-33.908-54.897-56.099-77.854H0v152.939c31.376-1.466,62.721-3.643,94-6.506
			C107.121-654.769,120.231-656.092,133.327-657.54z"/>
		<path fill="#F5F5F5" d="M787.896-390.458c0.5,2.72,0.711,5.488,0.549,8.239c-0.109,1.865-0.407,3.693-0.846,5.476
			c3.355,0.465,8.13-0.881,12.402-2.315v-12.931c-0.586,0.102-1.171,0.217-1.758,0.317
			C795.078-391.131,791.163-389.735,787.896-390.458z"/>
		<path fill="#F5F5F5" d="M712.688-554.228c-24.917-0.592-46.651,18.775-54.097,41.589c-0.271,0.833-0.761,1.439-1.354,1.855
			c-5.161,20.574,0.758,43.613,17.091,57.742c16.477,14.253,41.351,15.206,60.141,4.985c19.938-10.845,29.811-33.947,26.612-56.073
			C757.717-527.396,737.923-553.628,712.688-554.228z"/>
		<path fill="#F5F5F5" d="M369.853-534.927c1.122,0.351,2.062,0.087,2.726-0.483c0.958,0.302,2.039,0.103,2.969-0.914
			c16.289-17.783,32.984-35.186,50.127-52.146c16.9-16.72,35.56-32.159,51.318-49.965c1.645,0.257,3.071-1.942,1.813-3.432
			c-5.149-6.103-11.367-14.883-8.671-23.297c3.393-10.585,13.983-7.931,20.742-2.765c12.56,9.6,23.041,23.167,33.97,34.554
			c10.497,10.937,21.369,21.695,30.476,33.854c1.771,2.366,3.874,5.135,5.589,8.062c-1.851-2.162-5.851-1.036-5.319,2.423
			c-2.079,1.415-4.157,2.83-6.236,4.245c-1.104-0.61-2.207-1.22-3.311-1.83c-2.093-1.474-3.876-3.574-5.645-5.43
			c-2.807-2.946-5.592-5.913-8.389-8.869c-6.291-6.651-12.583-13.303-18.874-19.954c-10.161-10.743-23.255-21.605-30.085-35.11
			c-0.151-0.967-0.093-1.896,0.7-2.795c1.21-1.372,3.39-1.822,4.979-0.929c1.465,0.823,3.398-1.027,2.046-2.364
			c-2.752-2.721-7.32-3.563-10.481-0.969c-3.075,2.524-4.242,8.044-1.41,11.174c0.397,0.439,0.882,0.674,1.381,0.774
			c3.155,8.722,10.011,15.254,16.582,22.269c9.736,10.393,19.549,20.715,29.327,31.069c6.169,6.532,14.209,18.992,24.164,19.729
			c6.561,0.486,13.486-5.391,11.241-12.226c-0.008-0.023-0.02-0.042-0.028-0.065c3.104,5.744,4.391,11.965-1.414,16.888
			c-6.88,5.836-15.884,1.426-20.562-4.815c-1.902-2.538-5.053-0.905-5.739,1.522c-0.794-0.175-1.648-0.032-2.349,0.614
			c-18.493,17.029-35.29,36.126-52.646,54.299c-8.363,8.756-16.724,17.514-25.081,26.275c-4.179,4.38-8.358,8.761-12.537,13.142
			c-2.277,2.387-5.416,4.607-5.991,7.938c-1.106,0.921-1.731,2.433-0.994,4.115c17.607,40.149,12.165,88.907-14.437,123.897
			c-26.856,35.324-73.857,54.088-117.654,47.22c-41.786-6.552-79.167-35.526-96.149-74.212
			c-18.968-43.209-10.26-93.1,21.142-128.045C263.369-541.788,319.687-550.617,369.853-534.927z M219.566-466.424
			c-11.175,27.831-9.501,59.984,4.007,86.674c25.523,50.427,85.464,75.296,138.42,54.442c28.31-11.148,52.699-33.83,63.663-62.455
			c0.487-1.271,0.216-2.336-0.432-3.091c0.873-0.411,1.522-1.232,1.531-2.5c0.039-5.671-2.758-9.544-6.565-13.538
			c-5.939-6.23-12.281-12.133-18.492-18.09c-12.222-11.723-24.669-23.211-37.334-34.454c-24.664-21.896-49.845-44.181-77.299-62.543
			c-0.891-0.596-1.919-0.4-2.682,0.156C254.889-518.871,230.125-492.72,219.566-466.424z"/>
		<path fill="#F5F5F5" d="M768.499-498.864c0.928,18.981-6.618,37.248-20.367,49.439c2.834,6.359,5.591,12.75,8.491,19.081
			c2.172,4.743,5.066,9.477,6.7,14.495c0.353-0.131,0.719-0.225,1.064-0.284c6.709-1.141,13.641,6.003,17.224,10.927
			c2.192,3.012,3.886,6.4,5.059,9.959c0.01-0.006,0.017-0.011,0.027-0.017c0.473-0.271,1.117,0.111,0.991,0.681
			c0.044-0.202,7.328-1.586,12.313-2.528v-108.972c-4.509,1.382-9.254,2.234-13.785,3.275
			C780.325-501.453,774.441-499.981,768.499-498.864z"/>
		<path fill="#F5F5F5" d="M566.325-50.33c-9.903,5.321-19.99,10.106-29.662,14.647c-17.587,8.257-35.427,15.974-53.474,23.172
			c-1.039,4.186-2.126,8.354-3.243,12.511h121.815c-1.581-3.391-3.21-6.517-4.744-9.236
			C588.572-24.209,578.039-37.806,566.325-50.33z"/>
		<path fill="#F5F5F5" d="M759.316-253.358c-7.149,4.261-12.182,13.481-7.211,21.238c3.471,5.417,9.901,8.181,15.809,10.116
			c1.081-1.284,3.482-0.92,3.605,1.229c1.378,24.06-0.078,48.531-0.499,72.617c-0.212,12.104-0.423,24.206-0.635,36.309
			c-0.193,11.048,0.882,23.017-1.19,33.879c-0.115,0.602-0.502,1.017-0.988,1.282C753.4-49.159,733.413-24.165,713.604,0h13.807
			c5.217-6.435,10.586-12.76,16.562-18.416c-0.125-0.592,0.048-1.233,0.705-1.595C761.198-29.1,780.81-32.567,800-34.14v-195.785
			c-5.244,0.031-10.487,0.058-15.73,0.062c-5.676,0.005-12.941,0.892-17.915-2.56c-7.012-4.867-4.765-15.868,3.669-17.284
			c0.999-0.168,1.75,1.199,0.733,1.738c-6.12,3.242-6.062,11.034,1.509,13.168c3.589,1.012,8.322,0.279,12.004,0.23
			c5.243-0.069,10.487-0.114,15.73-0.158v-24.074C786.325-259.304,770.311-259.911,759.316-253.358z"/>
		<path fill="#F5F5F5" d="M747.522-17.596c-0.152,0.041-0.304,0.082-0.456,0.123C743.312-11.339,738.929-5.605,734.377,0H800v-4.826
			c-7.761-0.234-15.511-0.76-23.188-1.962C769.328-7.959,752.187-10.069,747.522-17.596z"/>
		<path fill="#F5F5F5" d="M758.97-16.476c5.011,1.702,10.103,3.018,15.31,3.963c8.488,1.543,17.102,2.165,25.72,2.422v-18.205
			c-16.083,1.859-31.617,5.229-47.43,9.36C754.674-18.29,756.723-17.24,758.97-16.476z"/>
		<path fill="#F5F5F5" d="M734.383-381.298c-0.546,11.831,9.809,22.231,21.468,22.594c12.483,0.389,23.98-9.679,25.625-21.981
			c0.793-5.934-0.534-12.132-3.401-17.36c-1.352-2.465-9.092-13.459-12.88-11.374c-0.902,0.497-1.766,0.5-2.483,0.21
			c-0.252,0.413-0.664,0.734-1.273,0.857C748.342-405.721,735.048-395.704,734.383-381.298z"/>
		<path fill="#F5F5F5" d="M351.634-777.712c1.976-0.441,3.944-0.895,5.904-1.359c22.818-5.417,45.465-11.919,67.844-19.328
			c-0.82-0.533-1.639-1.068-2.461-1.601h-68.465c-0.643,4.281-1.24,8.568-1.771,12.863C352.296-784,351.952-780.857,351.634-777.712
			z"/>
		<path fill="#F5F5F5" d="M773.867-765.225c3.004-0.2,5.824-2.41,5.641-5.617c-0.179-3.119-2.837-5.991-5.956-6.246
			c-0.347-0.028-0.648-0.125-0.906-0.269c-0.065,0.23-0.231,0.436-0.528,0.568C766.709-774.374,766.914-764.763,773.867-765.225z"/>
		<path fill="#F5F5F5" d="M262.727-775.58c26.78,7.279,54.984,4.833,81.984-0.662c0.77-7.91,1.762-15.799,2.93-23.658
			c0.005-0.033,0.011-0.067,0.016-0.101H223.111C232.126-787.959,248.84-779.354,262.727-775.58z"/>
		<path fill="#F5F5F5" d="M355.05-698.57c5.746-2.357,12.425-2.516,17.55,0.633c0.77-0.222,1.619-0.158,2.428,0.353
			c9.934,6.267,12.724,21.041,6.346,30.787c-0.978,1.495-2.159,2.793-3.464,3.937c16.775,0.784,30.827-14.132,41.11-25.725
			c10.016-11.291,18.486-23.896,25.676-37.151c8.359-15.41,14.974-31.655,20.442-48.296c-11.095-6.303-21.99-12.971-32.72-19.822
			c-26.623,9.019-53.848,17.523-81.442,23.262c-0.896,10.829-1.336,21.695-1.146,32.562
			C350.058-725.031,350.141-710.855,355.05-698.57z"/>
		<path fill="#F5F5F5" d="M370.979-692.336c-0.301-0.258-0.514-0.544-0.679-0.84c-4.262-0.398-8.605-0.71-12.388,0.549
			c0.106,0.185,0.198,0.375,0.307,0.558c1.891,3.179-2.946,5.949-4.927,2.88c-0.096-0.148-0.177-0.303-0.271-0.453
			c-0.735,0.73-1.427,1.575-2.056,2.582c-3.962,6.338-2.928,15.753,3.396,20.156c6.827,4.753,17.728,2.86,21.806-4.634
			C380.245-679.035,376.941-687.208,370.979-692.336z"/>
		<path fill="#F5F5F5" d="M645.785-718.199c-9.577,12.102-20.573,24.664-25.965,39.35c-5.017,13.665-4.305,31.486,8.676,40.569
			c11.949,8.362,29.458,8.259,43.422,9.218c16.675,1.146,33.4,1.341,50.107,1.021c25.985-0.497,51.982-1.638,77.975-3.059v-10.701
			c-26.835,1.161-53.69,1.841-80.547,2.012c-14.011,0.089-28.048,0.192-42.057-0.136c-8.878-0.208-18.337-0.913-26.37-5.061
			c-20.445-10.56-12.054-33.75-3.316-49.424c12.27-22.009,27.873-41.929,43.728-61.431c8.742-10.753,17.545-21.457,26.322-32.182
			c3.229-3.946,6.411-7.982,9.65-11.977h-13.807c-1.088,1.327-2.175,2.653-3.261,3.975
			C688.952-769.976,666.704-744.635,645.785-718.199z"/>
		<path fill="#F5F5F5" d="M467.127-780.268c2.026-6.533,3.875-13.121,5.607-19.732h-22.639c-3.305,1.179-6.615,2.345-9.932,3.489
			C449.034-790.927,458.012-785.478,467.127-780.268z"/>
		<path fill="#F5F5F5" d="M723.377-786.694c3.628-4.438,7.366-8.832,11-13.306H800v152.939c-18.228,0.852-36.466,1.467-54.709,1.829
			c-23.592,0.469-47.394,1.188-70.978,0.149c-8.933-0.393-19.813-1.532-26.383-8.363c-10.611-11.034-1.899-27.45,4.204-38.38
			c12.527-22.436,28.515-42.655,44.72-62.505C705.675-765.136,714.549-775.896,723.377-786.694z M682.711-696.703
			c2.969,0.554,6.258-1.137,7.496-3.898c0.525-1.171,0.859-3.118,0.157-4.275c-0.867-1.429-3.017-1.946-4.154-0.54
			c-0.788,0.974-0.371,2.308,0.53,2.765c-0.01,0.061-0.024,0.126-0.05,0.207c-0.154,0.483-0.483,0.903-0.885,1.214
			c-0.797,0.619-2.077,1.024-2.991,0.428c-2.031-1.323-0.411-4.866,1.506-5.361c1.272-0.329,0.965-2.197-0.303-2.242
			C677.407-708.639,676.068-697.942,682.711-696.703z M692.901-675.909c0.12-4.353-4.242-10.276-8.93-7.339
			c-1.439,0.901-0.984,3.57,0.926,3.417c3.346-0.268,3.885,3.431,2.768,5.847c-1.083,2.342-3.649,4.183-6.291,3.959
			c-7.109-0.601-6.706-10.257-0.186-11.711c1.399-0.312,0.974-2.279-0.321-2.375c-5.326-0.395-9.764,3.981-9.444,9.404
			c0.33,5.584,5.938,9.886,11.359,9.355C688.026-665.866,692.753-670.548,692.901-675.909z M764.531-768.66
			c0.638,5.136,5.331,8.129,10.305,7.514c4.931-0.609,9.106-4.539,8.962-9.697c-0.156-5.581-4.802-10.074-10.247-10.458
			c-1.604-0.112-2.24,1.302-1.945,2.524c-0.106-0.012-0.214-0.021-0.327,0.001C766.695-777.856,763.972-773.156,764.531-768.66z
			 M763.083-673.071c0.038-4.253-3.287-9.048-7.818-9.134c-2.244-0.042-2.295,2.885-0.492,3.629
			c2.333,0.962,4.242,2.769,4.136,5.504c-0.099,2.542-2.382,4.115-4.787,4.157c-2.594,0.046-4.419-1.701-4.688-4.243
			c-0.28-2.648,1.476-4.055,2.22-6.349c0.104-0.322-0.122-0.731-0.456-0.802c-4.155-0.89-6.04,5.451-5.605,8.533
			c0.649,4.609,4.85,7.462,9.371,7.009C759.317-665.201,763.042-668.539,763.083-673.071z M747.171-779.8
			c4.953,1.658,10.54-0.069,13.094-4.776c2.571-4.737,1.732-11.036-2.303-14.667c-1.857-1.671-4.358,0.858-2.729,2.728
			c4.207,4.827,2.101,14.333-5.512,13.041c-2.95-0.5-5.831-2.778-5.701-6.016c0.147-3.669,4.099-7.352,7.793-6.766
			c1.224,0.194,1.74-1.484,0.52-1.887c-5.142-1.697-10.488,1.461-11.977,6.645C738.861-786.288,742.267-781.44,747.171-779.8z
			 M723.939-724.139c-2.252,0.963-0.624,4.913,1.686,3.998c6.277-2.485,11.51,2.899,10.825,9.206
			c-0.579,5.322-4.731,9.464-9.888,10.6c-5.213,1.149-10.612-1.522-12.316-6.748c-1.978-6.064,1.867-11.848,7.307-14.312
			c1.175-0.532,0.29-2.172-0.827-1.962c-8.42,1.588-13.364,9.925-10.481,18.127c2.747,7.814,11.053,11.356,18.787,8.933
			c7.603-2.382,13.123-9.985,11.917-18.077C739.727-722.567,731.56-727.398,723.939-724.139z"/>
		<path fill="#F5F5F5" d="M473.247-776.837c10.766,5.988,21.705,11.647,32.862,16.793c14.09,6.499,28.647,12.044,43.674,15.96
			c13.041,3.398,28.502,7.359,41.906,3.634c27.719-7.706,19.816-38.656,10.074-59.55H479.947
			c-1.587,5.908-3.246,11.789-4.999,17.632C474.394-780.522,473.826-778.678,473.247-776.837z"/>
		<path fill="#F5F5F5" d="M251.117-649.377c4.11-15.901,8.505-31.973,14.174-47.427c-1.196-0.22-2.378-0.548-3.534-1.007
			c-0.5,0.4-1.155,0.633-1.942,0.549c-0.739-0.078-1.447-0.201-2.14-0.346c-1.294,8.044-3.101,16.023-4.864,23.974
			c-1.658,7.475-2.823,15.291-5.343,22.525c-0.005,0.014-0.012,0.024-0.018,0.038c1.237,0.587,2.444,1.264,3.617,2.008
			C251.083-649.167,251.089-649.268,251.117-649.377z"/>
		<path fill="#F5F5F5" d="M158.086-264.202c-3.905-2.555-7.894-5.015-11.76-7.577c-3.091,3.632-5.788,7.504-7.819,11.939
			c3.865-0.409,7.754-1.687,11.452-2.515C152.668-262.962,155.375-263.593,158.086-264.202z"/>
		<path fill="#F5F5F5" d="M151.96-291.197c-4.561,0.873-9.273,1.153-13.901,0.998c2.158,2.188,4.477,4.237,6.855,6.14
			C147.28-286.415,149.691-288.75,151.96-291.197z"/>
		<path fill="#F5F5F5" d="M153.333-251.734c5.688-1.153,11.375-2.333,17.079-3.407c-3.187-2.761-6.635-5.257-10.187-7.642
			c-4.141,0.914-8.303,1.75-12.449,2.62c-3.256,0.683-6.55,1.569-9.874,1.729c-0.065,0.156-0.137,0.307-0.2,0.464
			c-1.288,3.213-2.204,6.574-2.772,9.997c2.977-0.279,6.002-1.239,8.841-1.824C146.956-250.453,150.146-251.088,153.333-251.734z"/>
		<path fill="#F5F5F5" d="M158.4-299.399c-1.868,0.247-3.792,0.367-5.422,0.597c-6.824,0.963-13.853,1.807-20.782,1.676
			c1.373,1.937,2.913,3.79,4.562,5.561c5.949-0.155,11.65-0.985,17.462-2.184C155.736-295.54,157.157-297.404,158.4-299.399z"/>
		<path fill="#F5F5F5" d="M172.219-253.511c-6.846,1.407-13.73,2.646-20.599,3.934c-3.881,0.727-7.761,1.453-11.646,2.155
			c-1.763,0.318-3.5,0.717-5.246,0.792c-0.552,3.975-0.642,8.017-0.304,11.992c0.01,0.117,0.025,0.232,0.036,0.349
			c15.187-3.618,30.728-6.865,46.125-9.302C178.219-247.318,175.375-250.571,172.219-253.511z"/>
		<path fill="#F5F5F5" d="M362.511-43.422C359.414-29.02,356.638-14.547,354.455,0h68.465c-1.124-0.728-2.25-1.455-3.366-2.189
			C399.962-15.097,380.917-28.861,362.511-43.422z"/>
		<path fill="#F5F5F5" d="M450.095,0h22.639c0.811-3.097,1.604-6.198,2.363-9.304C466.808-6.083,458.471-2.988,450.095,0z"/>
		<path fill="#F5F5F5" d="M500.503-106.6c-3.734,28.948-8.703,57.789-15.37,86.065c17.985-7.362,35.728-15.239,53.165-23.559
			c7.603-3.627,15.345-7.411,22.979-11.488c-5.264-5.349-10.724-10.507-16.318-15.485C530.78-83.684,515.759-95.306,500.503-106.6z"
			/>
		<path fill="#F5F5F5" d="M157.125-311.614c2.037-0.336,4.154-0.882,6.245-0.972c0.352-2.094,0.533-4.216,0.533-6.34
			c-12.229,3.443-25.728,4.168-38.303,3.263c0.033,3.175,0.617,6.222,1.631,9.134c6.408-1.26,12.871-2.278,19.312-3.34
			C150.071-310.451,153.599-311.033,157.125-311.614z"/>
		<path fill="#F5F5F5" d="M154.241-300.914c0.675-0.115,3.305-0.349,5.449-0.719c0.277-0.522,0.545-1.051,0.797-1.592
			c1.103-2.369,1.929-4.847,2.497-7.382c-5.445,0.283-11.067,1.685-16.341,2.497c-6.311,0.971-12.631,1.99-18.97,2.773
			c0.967,2.461,2.244,4.82,3.741,7.075c4.857-0.527,9.74-0.83,14.591-1.439C148.758-300.048,151.504-300.452,154.241-300.914z"/>
		<path fill="#F5F5F5" d="M183.178-153.917c3.21-0.577,6.534-1.384,9.831-1.83c-2.88-3.86-6.163-7.422-9.767-10.621
			c-4.915,0.621-9.838,1.17-14.761,1.711c-4.527,0.498-9.356,1.371-14.023,1.484c-1.377,2.219-2.591,4.568-3.572,7.103
			c-1.08,2.789-1.899,5.661-2.507,8.581c7.092-1.424,14.223-2.676,21.334-3.992C174.198-152.311,178.688-153.111,183.178-153.917z"
			/>
		<path fill="#F5F5F5" d="M339.092-62.667c-11.236-9.621-22.27-19.528-32.917-29.81c-5.724,2.994-11.423,6.038-17.079,9.156
			c-13.047,7.193-26.012,14.62-38.625,22.553c-10.957,6.891-22.32,14.979-29.03,26.333c-7.787,13.179-5.478,24.886,1.67,34.434
			h124.546c2.403-16.137,5.424-32.213,8.839-48.219C350.628-52.955,344.818-57.763,339.092-62.667z"/>
		<path fill="#F5F5F5" d="M201.641-140.263c-0.398-1.033-0.822-2.064-1.288-3.09c-1.622-3.567-3.565-6.976-5.779-10.199
			c-3.456,0.806-7.101,1.155-10.563,1.715c-4.256,0.689-8.513,1.378-12.772,2.044c-7.695,1.203-15.389,2.473-23.107,3.54
			c-0.851,4.556-1.19,9.214-1.185,13.846c8.995-1.359,18.04-2.432,27.048-3.7C183.218-137.405,192.408-139.038,201.641-140.263z"/>
		<path fill="#F5F5F5" d="M185.293-230.456c-0.44-3.883-1.617-7.739-3.709-11.464c-15.43,3.585-31.315,6.44-47.005,8.809
			c0.392,3.345,1.125,6.508,2.148,9.511c8.36-1.237,16.764-2.237,25.138-3.379C169.678-228.044,177.471-229.45,185.293-230.456z"/>
		<path fill="#F5F5F5" d="M451.241-150.314c12.415,8.469,24.628,17.24,36.73,26.134c2.321,1.706,4.643,3.417,6.963,5.128
			c1.73-14.028,3.179-28.089,4.367-42.161c-10.271,1.832-20.51,3.933-30.716,6.401C462.779-153.407,457.002-151.887,451.241-150.314
			z"/>
		<path fill="#F5F5F5" d="M174.098-134.272c-9.017,1.18-18.075,2.375-27.146,3.093c0.01,0.707,0.028,1.413,0.053,2.117
			c0.186,5.145,0.756,10.268,1.527,15.355c0.023,0.151,0.049,0.301,0.073,0.452c10.034-2.301,20.085-4.519,30.146-6.7
			c5.55-1.203,11.107-2.374,16.661-3.56c3.323-0.709,6.844-1.786,10.283-1.647c-0.848-4.454-1.844-8.845-3.347-13.173
			C193.006-136.615,183.511-135.504,174.098-134.272z"/>
		<path fill="#F5F5F5" d="M181.145-168.169c-4.374-3.65-9.048-6.91-13.772-10.103c-4.223,4.103-8.303,8.301-11.615,13.107
			c4.176-0.653,8.535-0.847,12.62-1.35C172.637-167.038,176.89-167.604,181.145-168.169z"/>
		<path fill="#F5F5F5" d="M179.155-205.548c1.654-2.845,3.06-5.82,4.12-8.875c-12.733,2.654-26.229,4.148-39.25,4.455
			c2.515,3.362,5.432,6.476,8.64,9.385c3.947-0.709,7.925-1.273,11.872-1.984C169.389-203.443,174.265-204.896,179.155-205.548z"/>
		<path fill="#F5F5F5" d="M183.945-216.53c1.154-3.959,1.718-8.024,1.5-12.078c-7.534,1.354-15.201,2.213-22.776,3.21
			c-8.49,1.118-17.029,2.19-25.573,2.841c1.514,4.117,3.586,7.921,6.096,11.459c6.662-0.64,13.324-1.177,19.967-2.049
			C170.129-214.062,177.017-215.391,183.945-216.53z"/>
		<path fill="#F5F5F5" d="M170.239-193.762c2.749-2.87,5.312-6.076,7.524-9.509c-3.837,1.004-7.938,1.488-11.788,2.1
			c-4.034,0.641-8.116,1.255-12.203,1.565c1.743,1.523,3.557,2.994,5.447,4.406c2.384,1.782,4.813,3.498,7.254,5.191
			C167.752-191.238,169.014-192.483,170.239-193.762z"/>
		<path fill="#F5F5F5" d="M434.596-153.128c-8.422-5.506-16.949-10.851-25.631-15.944c-3.731-2.189-7.495-4.327-11.284-6.42
			c-4.247,13.061-8.235,26.208-12.016,39.412C401.624-142.253,417.977-148.011,434.596-153.128z"/>
		<path fill="#F5F5F5" d="M237.876-586.157c17.589-0.115,27.646-16.95,26.348-32.94c-0.733-0.198-1.374-0.8-1.558-1.844
			c-2.702-15.328-13.647-28.845-30.498-27.994c-16.986,0.858-28.691,15.624-29.536,32.015
			C201.76-599.995,222.324-586.055,237.876-586.157z"/>
		<path fill="#F5F5F5" d="M375.373-124.597c-0.983,0.397-1.973,0.779-2.955,1.18c-20.505,8.398-40.615,17.757-60.331,27.875
			c11.614,10.984,23.564,21.62,35.816,31.886c3.355,2.812,6.734,5.594,10.132,8.354c4.658-21.075,9.965-42.019,15.543-62.781
			C374.163-120.257,374.776-122.424,375.373-124.597z"/>
		<path fill="#F5F5F5" d="M439.548-118.355c-1.084-0.035-1.899-0.476-2.456-1.114c-18.523-1.452-32.314,11.476-36.214,30.038
			c-3.793,18.052,5.687,36.807,24.635,40.888c18.171,3.914,36.9-8.847,40.96-26.707C470.55-93.184,460.276-117.686,439.548-118.355z
			"/>
		<path fill="#F5F5F5" d="M558.75-67.105c2.831,2.717,5.624,5.496,8.371,8.327c16.904-9.489,32.926-20.693,45.205-35.405
			c15.719-18.832,22.912-52.104-0.333-67.749c-2.301,4.213-5.955,7.757-10.616,9.823c-11.87,5.261-27.565-0.666-30.991-13.79
			c-0.34-1.301-0.432-2.898-0.306-4.631c-21.418,2.147-42.689,4.597-63.819,8.115c-1.294,16.035-2.857,32.123-4.81,48.195
			C521.311-99.456,540.891-84.247,558.75-67.105z"/>
		<path fill="#F5F5F5" d="M377.669-132.936c4.335-15.377,8.967-30.672,13.927-45.859c-20.082-10.706-40.972-19.897-62.767-26.528
			c-14.518-4.417-31.193-9.12-45.818-2.563c-12.934,5.798-21.089,22.786-9.087,33.893c1.089,1.008,1.236,2.209,0.848,3.241
			c11.247,2.708,19.607,14.468,17.481,26.08c-1.057,5.777-4.689,10.841-9.502,14.141c6.23,11.343,14.842,20.926,24.062,29.949
			c22.041-11.367,44.577-21.77,67.581-31.045C375.482-132.068,376.577-132.501,377.669-132.936z"/>
		<path fill="#F5F5F5" d="M261.91-702.447c9.249,1.68,18.904-0.172,23.244-9.599c4.504-9.782-0.535-20.226-9.667-24.903
			c-4.717-2.416-11.577-4.296-16.743-2.469c-4.801,1.698-8.14,6.324-9.986,10.856c-4.311,10.583-0.969,24.809,12.028,26.211
			C261.12-702.475,261.497-702.522,261.91-702.447z"/>
		<path fill="#F5F5F5" d="M443.223-155.712c18.663-5.46,37.627-10.068,56.718-13.508c0.914-11.816,1.656-23.636,2.212-35.447
			c1.326-28.125,6.154-65.544-13-89.065c-9.646-11.845-24.666-15.365-36.781-4.906c-9.586,8.276-14.967,20.501-19.981,31.837
			c-12.234,27.658-22.968,55.94-32.504,84.631c1.849,1.013,3.692,2.036,5.527,3.073
			C418.324-171.799,430.882-163.922,443.223-155.712z"/>
		<path fill="#F5F5F5" d="M272.89-164.536c-0.492-0.158-0.897-0.388-1.224-0.667c-7.662,2.679-15.164,7.299-15.559,16.637
			c-0.329,7.771,6.367,15.375,14.22,15.43c8.13,0.057,15.691-7.173,15.608-15.352C285.855-156.326,279.992-162.254,272.89-164.536z"
			/>
		<path fill="#F5F5F5" d="M329.026-608.411c1.056,5.975,0.823,11.273,6.415,15.075c4.073,2.769,8.957,3.489,13.716,2.395
			c9.575-2.201,16.141-10.973,14.881-20.825c-1.318-10.312-10.641-17.464-20.958-16.049c-9.573,1.312-14.121,9.098-15.442,17.614
			C328.317-609.865,328.878-609.247,329.026-608.411z"/>
		<path fill="#F5F5F5" d="M179.021-540.056c12.601-3.674,11.46-18.313,6.326-27.528c-0.17-0.306-0.262-0.61-0.311-0.908
			c-5.939-5.765-15.379-8.473-22.877-3.958c-7.881,4.747-10.856,15.935-5.963,23.787
			C160.774-541.314,170.732-537.64,179.021-540.056z"/>
		<path fill="#F5F5F5" d="M324.52-602.215c-0.163-1.044-0.275-2.108-0.273-3.209c-0.162-0.178-0.299-0.403-0.395-0.694
			c-1.013-3.1-1.102-6.231-0.476-9.208c-9.307,0.639-18.808,0.236-28.093-0.062c-7.93-0.254-17.833,0.416-25.708-1.804
			c0.108,3.56-0.289,7.099-1.116,10.503c9.4,0.787,18.79,1.728,28.191,2.516C305.697-603.415,315.607-604.045,324.52-602.215z"/>
		<path fill="#F5F5F5" d="M476.979-17.249c-14.484,5.777-29.12,11.206-43.88,16.244c-1.506-0.966-3.019-1.924-4.519-2.897
			c-22.273-14.454-43.78-30.034-64.532-46.581c2.474-11.13,5.105-22.222,7.791-33.27c3.58-14.727,7.398-29.405,11.472-44.014
			c19.417-7.592,39.166-14.339,59.197-20.114c12.723,8.538,25.225,17.411,37.628,26.398c4.61,3.341,9.219,6.69,13.817,10.057
			C489.811-79.753,484.212-48.275,476.979-17.249z M474.33-84.765c-0.414-19.487-13.923-39.845-34.782-40.519
			c-0.155-0.005-0.292,0.018-0.436,0.029c-14.821-5-31.156,5.243-38.778,18.119c-9.249,15.624-10.657,36.204,0.951,50.904
			C425.973-24.967,475.137-46.745,474.33-84.765z"/>
		<path fill="#F5F5F5" d="M595.326-157.32c9.035-2.027,14.702-10.915,11.612-19.836c-2.838-8.194-13.861-11.514-20.525-5.635
			c-1.089,0.961-2.432,0.846-3.339,0.141c-1.046,0.728-2.076,1.477-2.947,2.431c-2.947,3.231-4.344,8.26-3.171,12.51
			C579.058-160.095,587.862-155.646,595.326-157.32z"/>
		<path fill="#F5F5F5" d="M215.137,0h-82.358c-22.368-29.024-46.375-57.068-73.954-81.294c-0.585-0.514-1.228-0.725-1.851-0.735
			c0.286-0.431,0.452-0.978,0.42-1.65c-1.069-22.66-1.774-45.335-2.064-68.019c-0.285-22.378,0.793-44.929-0.602-67.271
			c0.047-0.004,0.091,0,0.139-0.006c16.747-2.327,30.394-24.109,14.998-37.116c-5.951-5.028-14.186-5.924-21.635-6.559
			c-13.697-1.169-27.487-1.641-41.231-1.76C4.81-264.43,2.458-264.5,0-264.579v-110.179c4.583-0.929,9.153-2.046,13.667-3.032
			c14.66-3.201,30.469-5.581,44.771-10.455c2.375,6.119,5.381,11.712,8.565,16.081c15.407,21.139,41.3,27.648,64.775,15.873
			c20.843-10.456,35.027-33.48,33.997-56.911c-1.006-22.852-17.11-44.477-38.841-51.716c-14.259-4.75-29.681-2.689-42.464,4.281
			c-8.083-17.28-19.671-33.531-29.832-49.585c-0.328-0.518-0.735-0.855-1.172-1.068c0.822-1.738,1.498-3.584,1.983-5.544
			c4.353-17.553-9.938-37.956-28.346-39.078c-8.24-0.502-16.369,3.022-22.478,8.404c-1.471,1.296-3.254,3.189-4.625,5.288v-83.703
			c35.845-1.994,71.689-3.988,107.535-5.981c17.741-0.987,35.482-1.974,53.224-2.96c12.919-0.719,27.834-0.583,38.285-9.443
			c19.872-16.848,8.645-47.193-2.276-65.602c-9.271-15.625-20.367-30.263-30.879-45.062c-10.654-14.999-21.457-29.893-32.679-44.473
			c-0.142-0.185-0.287-0.369-0.429-0.554h82.358c5.729,10.165,15.626,18.629,26.646,24.003
			c28.695,13.992,62.134,13.522,92.932,8.454c3.129-0.515,6.253-1.084,9.374-1.678c-0.781,9.878-1.177,19.785-1.053,29.7
			c0.184,14.632,0.617,30.414,6.779,43.921c-2.093,1.583-3.868,3.502-5.116,5.682c-5.496,9.599-3.251,23.124,6.395,29.168
			c5.833,3.655,13.327,4.22,19.76,1.97c0.173,1.109,0.924,2.056,2.437,2.284c27.975,4.213,50.451-24.788,64.619-45.094
			c14.684-21.044,25.229-44.714,33.321-69.032c12.02,6.638,24.265,12.834,36.772,18.362c15.111,6.68,30.71,12.314,46.846,15.956
			c13.012,2.938,27.713,5.708,40.733,1.342c26.021-8.724,24.23-39.146,15.581-59.979c-0.707-1.703-1.454-3.386-2.22-5.061h96.887
			c-0.504,0.617-0.995,1.24-1.501,1.855c-21.129,25.669-43.029,50.704-63.608,76.824c-15.969,20.268-38.563,46.679-26.556,74.3
			c4.943,11.37,15.429,17.445,27.134,20.082c15.801,3.56,32.69,3.988,48.817,4.489c36,1.119,72.006-1.367,107.932-3.366
			c0.651-0.036,1.303-0.072,1.954-0.108v83.703c-1.076,1.647-1.899,3.423-2.116,5.138c-0.008,0.014-0.014,0.03-0.022,0.044
			c-5.59,0.105-11.293,2.388-16.715,3.558c-7.249,1.563-14.532,2.82-21.869,3.861c-8.352-14.829-21.78-26.965-37.996-30.497
			c-31.121-6.777-60.29,17.94-69.48,46.081c-0.263,0.806-0.227,1.506,0.01,2.086c-7.107,20.766-1.121,44.425,14.078,60.374
			c14.6,15.319,36.79,20.289,56.87,15.336c1.91,6.609,4.127,13.117,6.341,19.63c1.826,5.371,2.888,11.587,5.886,16.47
			c-4.9,5.716-7.862,12.974-7.468,20.982c0.755,15.333,15.083,28.064,30.343,27.296c13.044-0.656,24.465-9.75,28.789-21.707
			c1.49,0.539,3.154,0.467,5.308,0.186c2.678-0.35,5.361-0.83,8.04-1.373v110.179c-18.244-0.579-42.53-1.581-52.668,14.82
			c-9.183,14.857,3.855,31.513,19.892,31.118c-1.97,23.329-1.421,47.099-1.809,70.484c-0.201,12.104-0.401,24.206-0.602,36.309
			c-0.172,10.418-1.442,21.594-0.169,31.994c-0.029,0.039-0.063,0.069-0.091,0.11C745.893-52.345,726.822-25.668,705.828,0h-96.887
			c-9.045-19.771-22.075-37.527-36.843-53.511c20.125-11.371,38.988-25.247,51.424-44.185c14.464-22.025,15.336-55.854-9.145-70.95
			c0.981-5.367-0.045-11.086-3.629-15.952c-4.935-6.699-22.786-12.695-27.66-3.436c-5.742-0.655-10.06,5.557-11.975,12.011
			c-21.366,0.061-42.853,2.078-64.213,5.6c0.403-5.384,0.784-10.763,1.125-16.128c1.149-18.086,2.194-36.293,1.966-54.421
			c-0.192-15.327-1.769-31.25-8.241-45.34c-10.347-22.526-35.795-35.011-55.784-15.761c-9.775,9.414-15.327,22.267-20.677,34.477
			c-6.943,15.846-13.431,31.891-19.486,48.097c-4.212,11.276-8.199,22.633-12.01,34.049c-12.263-6.48-24.823-12.391-37.703-17.549
			c-16.094-6.445-33.441-12.986-50.808-14.655c-14.162-1.361-30.167,2.279-38.93,14.423c-7.195,9.972-6.911,24.232,1.864,32.966
			c-8.782,1.047-17.132,11.481-18.368,19.331c-1.738,11.038,6.566,22.386,17.551,24.139c3.83,0.611,7.685,0.004,11.197-1.472
			c5.01,11.886,13.219,21.623,22.38,30.744c-5.551,2.917-11.08,5.875-16.566,8.912c-14.561,8.06-29.301,16.215-43.075,25.577
			c-10.443,7.097-20.89,15.607-26.873,26.966C207.703-23.229,209.121-10.676,215.137,0z M624.643-282.268
			c-0.507,9.268,7.188,18.476,16.741,18.699c0.952,0.022,1.707-0.566,2.032-1.295c1.938-0.072,3.802-0.535,5.543-1.291
			c-0.233,0.664-0.111,1.439,0.613,2.018c5.695,4.555,10.517,9.608,15.329,15.025c-5.48,6.327-8.448,14.838-8.253,23.369
			c0.312,13.65,9.876,25.89,22.447,30.758c13.285,5.145,27.901,1.2,35.995-10.676c8.064-11.832,10.629-28.444,3.101-41.11
			c-2.827-4.755-6.713-8.473-11.183-11.063c1.468-2.292,1.925-5.246,2.604-7.856c0.874-3.36,1.691-6.731,2.491-10.109
			c3.953,0.106,7.979-1.269,10.958-4.172c7.278-7.093,5.678-18.924-2.212-24.728c-8.393-6.174-20.458-6.582-26.27,3.251
			c-4.441,7.517-1.249,17.28,6.114,21.183c-1.25,2.948-1.536,6.438-2.264,9.528c-0.713,3.03-1.587,6.003-2.447,8.986
			c-6.741-1.082-13.876-0.059-20.312,3.302c-0.21,0.11-0.39,0.24-0.543,0.386c-2.382-2.571-4.853-5.056-7.323-7.542
			c-1.374-1.383-2.746-2.77-4.131-4.142c-0.692-0.685-1.387-1.367-2.086-2.045c-0.345-0.342-0.695-0.681-1.05-1.014
			c-0.306-0.408-0.659-0.632-1.053-0.69c0.031-0.089,0.059-0.179,0.068-0.273c0.01-0.097,0.019-0.194,0.029-0.292
			c0.078-0.772-0.294-1.528-1.022-1.848l-0.001,0c0.621-1.388,1.099-2.838,1.368-4.333c1.779-9.868-7.911-17.492-17.221-18.012
			C633.426-298.772,625.152-291.56,624.643-282.268z M579.175-524.11c-13.521-0.856-36.375-3.899-43.583,11.292
			c-5.563,11.726,5.635,20.514,16.518,20.565c-6.396,39.161-11.048,78.685-15.715,118.079c-2.455,20.719-4.765,41.455-6.933,62.207
			c-1.878,17.968-5.733,37.262-3.18,55.314c1.905,13.464,9.338,27.277,22.78,32.178c13.152,4.796,26.379-2.505,33.946-13.296
			c10.457-14.91,10.907-35.608,13.224-53.035c2.597-19.538,5.018-39.1,7.228-58.686c5.102-45.219,9.217-90.554,12.258-135.959
			c5.343,1.369,10.831-1.397,13.746-6.114c3.595-5.816,1.94-13.072-2.002-18.257c-4.51-5.932-11.544-8.811-18.607-10.444
			C599.199-522.5,589.05-523.484,579.175-524.11z M370.578-540.931c-45.405-17.825-101.012-8.251-137.63,23.981
			c-35.612,31.347-52.134,80.69-40.02,126.863c11.786,44.919,47.929,81.272,92.461,94.19c44.972,13.046,95.528-0.623,128.653-33.542
			c36.707-36.479,47.037-93.769,27.528-141.278l0.323-0.256c1.035-0.822,1.119-2.201,0.628-3.31c2.802-4.24,8.478-8.34,11.682-11.7
			c3.831-4.015,7.662-8.031,11.492-12.046c8.01-8.396,16.013-16.799,24.019-25.2c15.393-16.153,31.517-31.895,45.869-48.992
			c5.326,6.18,13.5,9.991,21.752,7.872c7.401-1.9,13.559-8.572,14.021-16.326c0.624-10.462-8.193-20.249-14.322-27.86
			c-8.674-10.772-18.515-20.575-28.079-30.543c-9.727-10.138-19.122-20.866-29.379-30.47c-5.76-5.393-13.208-10.972-21.572-10.086
			c-8.039,0.852-13.708,7.438-15.044,15.184c-1.663,9.643,3.266,17.423,10.159,23.29c-18.947,13.606-35.517,31.201-52.035,47.55
			c-17.14,16.965-33.832,34.373-50.116,52.16C370.814-541.284,370.692-541.108,370.578-540.931z M183.908-536.391
			c11.323-5.568,11.976-18.344,8.154-28.8c3.515-2.696,6.575-7.723,9.207-10.942c3.801-4.65,7.774-9.053,11.943-13.366
			c9.201,6.505,20.943,10.214,31.49,7.687c11.406-2.733,19.254-11.212,22.779-21.492c9.669,1.933,19.501,3.258,29.311,4.195
			c9.089,0.869,19.729,2.837,28.778,1.452c0.073-0.011,0.138-0.033,0.207-0.05c3.454,8.381,12.412,13.7,22.501,12.272
			c12.921-1.829,22.548-13.651,20.973-26.715c-1.575-13.062-13.385-22.5-26.549-20.823c-7.848,1-15.093,6.726-18.165,13.991
			c-8.711-0.753-17.538-0.802-26.262-1.253c-5.365-0.278-10.732-0.576-16.093-0.916c-4.22-0.268-8.799-1.065-13.012-0.473
			c-0.301-1.149-1.223-1.776-2.211-1.918c-0.385-8.942-5.493-17.413-12.567-23.127c0.726-0.245,1.355-0.805,1.609-1.741
			c4.335-15.926,8.909-31.934,12.441-48.074c9.291,0.194,18.67-5.986,21.976-14.727c5-13.218-2.522-26.434-15.122-31.5
			c-6.276-2.524-13.786-3.883-20.105-0.81c-5.878,2.858-9.823,8.741-11.867,14.779c-3.906,11.535-0.142,25.771,11.218,30.216
			c-2.263,7.547-4.06,15.255-5.865,22.923c-1.777,7.547-4.24,15.27-5.142,22.975c-13.158-4.182-28.594,0.569-37.189,11.383
			c-9.28,11.674-12.587,29.587-3.323,42.02c-7.739,6.421-15.856,14.282-20.701,22.827c-7.238-4.582-17.018-4.788-24.345,0.518
			c-9.533,6.902-12.347,20.966-5.694,30.747C158.919-535.375,173.188-531.12,183.908-536.391z M214.502-113.396
			c3.218-17.047-5.229-36.791-15.692-49.913c-6.97-8.741-15.727-15.218-24.731-21.455c3.658-3.617,7.17-7.37,10.117-11.602
			c9.649-13.861,14.265-31.73,6.627-47.583c-7.646-15.872-23.338-24.787-37.496-34.047c-0.24-0.157-0.482-0.32-0.723-0.48
			c7.07-7.058,13.951-14.172,17.535-23.706c3.628-9.65,4.07-19.929,1.454-29.886c-1.554-5.913-10.633-2.874-9.026,3.042
			c0.712,2.624,1.141,5.32,1.286,8.03c-6.099,1.212-12.132,2.518-18.356,3.133c-6.608,0.652-13.236,0.854-19.871,0.738
			c0.083-1.934,0.372-3.913,0.893-5.936c0.819-3.174-3.927-4.818-5.372-1.918c-8.69,17.432,2.571,35.703,16.208,46.722
			c0.437,0.353,0.878,0.702,1.323,1.047c-8.734,10.797-13.828,23.404-13.916,37.848c-0.101,16.462,6.787,31.681,18.556,43.041
			c4.998,4.825,10.58,8.896,16.291,12.804c-3.503,3.352-6.893,6.81-9.786,10.722c-5.781,7.816-9.355,16.951-10.908,26.527
			c-1.934,11.928-0.94,24,1.098,35.842c0.505,2.936,1.069,5.863,1.651,8.786c0.452,2.269,0.724,4.934,2.517,6.612
			c3.688,3.454,9.971-0.212,8.13-5.098c-0.423-1.124-1.171-1.84-2.032-2.219c-0.302-1.536-0.383-3.361-0.578-4.427
			c-0.325-1.779-0.627-3.562-0.914-5.348c9.038-1.728,18.062-3.524,27.083-5.339c5.108-1.028,10.21-2.087,15.313-3.142
			c4.76-0.983,9.958-2.754,14.907-2.447c0.542,3.008,1.041,6.046,1.599,9.115C208.332-110.398,213.717-109.241,214.502-113.396z"/>
		<path fill="#F5F5F5" d="M187.613-571.674c0.766-0.045,1.533,0.298,2.041,1.208c0.115,0.206,0.225,0.418,0.336,0.628
			c2.507-3.528,6.44-6.906,9.021-9.7c3.777-4.09,7.603-8.179,11.988-11.618c-2.207-1.749-4.227-3.66-6.013-5.672
			c-2.895,3.353-5.829,6.671-8.705,10.042c-3.591,4.208-6.818,9.002-10.805,12.829C186.234-573.25,186.96-572.502,187.613-571.674z"
			/>
		<path fill="#3C3C3B" d="M160.758-634.867c12.919-0.719,27.834-0.583,38.285-9.443c19.872-16.848,8.645-47.193-2.276-65.602
			c-9.271-15.625-20.367-30.263-30.879-45.062c-10.654-14.999-21.457-29.893-32.679-44.473c-0.142-0.185-0.287-0.369-0.429-0.554
			h-7.77c15.677,20.026,30.585,40.704,45.298,61.539c14.82,20.986,38.987,48.243,32.854,76.171
			c-3.601,16.396-19.207,20.187-33.863,21.158c-16.52,1.095-33.068,1.854-49.598,2.778C79.845-636.127,39.926-633.281,0-631.1v5.175
			c35.845-1.994,71.689-3.988,107.535-5.981C125.276-632.893,143.017-633.88,160.758-634.867z"/>
		<path fill="#3C3C3B" d="M131.816-651.559c11.537-1.216,24.291-1.398,35.342-5.264c20.008-7,21.292-28.365,12.41-44.986
			c-6.441-12.054-15.3-22.972-22.68-34.479c-6.969-10.869-13.831-21.81-21.139-32.457c-7.495-10.918-15.536-21.55-24.526-31.255
			h-7.472c22.191,22.957,38.563,51.117,56.099,77.854c10.406,15.867,35.944,50.104,4.67,60.085
			c-9.882,3.154-20.925,3.387-31.192,4.521c-13.096,1.448-26.206,2.771-39.327,3.973c-31.279,2.864-62.624,5.041-94,6.506v5.26
			c29.855-1.292,59.685-3.184,89.458-5.722C103.59-648.728,117.71-650.073,131.816-651.559z"/>
		<path fill="#3C3C3B" d="M640.718-721.321c-15.969,20.268-38.563,46.679-26.556,74.3c4.943,11.37,15.429,17.445,27.134,20.082
			c15.801,3.56,32.69,3.988,48.817,4.489c36,1.119,72.006-1.367,107.932-3.366c0.651-0.036,1.303-0.072,1.954-0.108v-5.175
			c-25.993,1.421-51.99,2.562-77.975,3.059c-16.707,0.32-33.433,0.126-50.107-1.021c-13.964-0.959-31.473-0.856-43.422-9.218
			c-12.98-9.083-13.693-26.904-8.676-40.569c5.392-14.686,16.388-27.249,25.965-39.35c20.919-26.436,43.167-51.777,64.558-77.826
			c1.086-1.322,2.173-2.648,3.261-3.975h-7.776c-0.504,0.617-0.995,1.24-1.501,1.855
			C683.198-772.476,661.297-747.441,640.718-721.321z"/>
		<path fill="#3C3C3B" d="M691.438-755.841c-15.855,19.502-31.458,39.421-43.728,61.431c-8.738,15.674-17.129,38.864,3.316,49.424
			c8.032,4.148,17.491,4.853,26.37,5.061c14.009,0.328,28.045,0.225,42.057,0.136c26.857-0.17,53.712-0.851,80.547-2.012v-5.26
			c-18.228,0.852-36.466,1.467-54.709,1.829c-23.592,0.469-47.394,1.188-70.978,0.149c-8.933-0.393-19.813-1.532-26.383-8.363
			c-10.611-11.034-1.899-27.45,4.204-38.38c12.527-22.436,28.515-42.655,44.72-62.505c8.821-10.805,17.695-21.565,26.523-32.364
			c3.628-4.438,7.366-8.832,11-13.306h-6.966c-3.239,3.995-6.421,8.031-9.65,11.977C708.983-777.298,700.18-766.594,691.438-755.841
			z"/>
		<path fill="#3C3C3B" d="M683.972-683.248c-1.439,0.901-0.984,3.57,0.926,3.417c3.346-0.268,3.885,3.431,2.768,5.847
			c-1.083,2.342-3.649,4.183-6.291,3.959c-7.109-0.601-6.706-10.257-0.186-11.711c1.399-0.312,0.974-2.279-0.321-2.375
			c-5.326-0.395-9.764,3.981-9.444,9.404c0.33,5.584,5.938,9.886,11.359,9.355c5.243-0.514,9.97-5.195,10.118-10.556
			C693.021-680.261,688.659-686.185,683.972-683.248z"/>
		<path fill="#3C3C3B" d="M682.711-696.703c2.969,0.554,6.258-1.137,7.496-3.898c0.525-1.171,0.859-3.118,0.157-4.275
			c-0.867-1.429-3.017-1.946-4.154-0.54c-0.788,0.974-0.371,2.308,0.53,2.765c-0.01,0.061-0.024,0.126-0.05,0.207
			c-0.154,0.483-0.483,0.903-0.885,1.214c-0.797,0.619-2.077,1.024-2.991,0.428c-2.031-1.323-0.411-4.866,1.506-5.361
			c1.272-0.329,0.965-2.197-0.303-2.242C677.407-708.639,676.068-697.942,682.711-696.703z"/>
		<path fill="#3C3C3B" d="M725.625-720.142c6.277-2.485,11.51,2.899,10.825,9.206c-0.579,5.322-4.731,9.464-9.888,10.6
			c-5.213,1.149-10.612-1.522-12.316-6.748c-1.978-6.064,1.867-11.848,7.307-14.312c1.175-0.532,0.29-2.172-0.827-1.962
			c-8.42,1.588-13.364,9.925-10.481,18.127c2.747,7.814,11.053,11.356,18.787,8.933c7.603-2.382,13.123-9.985,11.917-18.077
			c-1.22-8.192-9.388-13.023-17.008-9.764C721.687-723.176,723.315-719.227,725.625-720.142z"/>
		<path fill="#3C3C3B" d="M747.171-779.8c4.953,1.658,10.54-0.069,13.094-4.776c2.571-4.737,1.732-11.036-2.303-14.667
			c-1.857-1.671-4.358,0.858-2.729,2.728c4.207,4.827,2.101,14.333-5.512,13.041c-2.95-0.5-5.831-2.778-5.701-6.016
			c0.147-3.669,4.099-7.352,7.793-6.766c1.224,0.194,1.74-1.484,0.52-1.887c-5.142-1.697-10.488,1.461-11.977,6.645
			C738.861-786.288,742.267-781.44,747.171-779.8z"/>
		<path fill="#3C3C3B" d="M755.265-682.205c-2.244-0.042-2.295,2.885-0.492,3.629c2.333,0.962,4.242,2.769,4.136,5.504
			c-0.099,2.542-2.382,4.115-4.787,4.157c-2.594,0.046-4.419-1.701-4.688-4.243c-0.28-2.648,1.476-4.055,2.22-6.349
			c0.104-0.322-0.122-0.731-0.456-0.802c-4.155-0.89-6.04,5.451-5.605,8.533c0.649,4.609,4.85,7.462,9.371,7.009
			c4.354-0.435,8.079-3.773,8.119-8.305C763.12-677.324,759.795-682.119,755.265-682.205z"/>
		<path fill="#3C3C3B" d="M764.531-768.66c-0.559-4.496,2.165-9.197,6.748-10.115c0.113-0.022,0.221-0.013,0.327-0.001
			c-0.295-1.222,0.342-2.636,1.945-2.524c5.444,0.383,10.091,4.877,10.247,10.458c0.144,5.158-4.032,9.087-8.962,9.697
			C769.862-760.53,765.169-763.523,764.531-768.66z M773.867-765.225c3.004-0.2,5.824-2.41,5.641-5.617
			c-0.179-3.119-2.837-5.991-5.956-6.246c-0.347-0.028-0.648-0.125-0.906-0.269c-0.065,0.23-0.231,0.436-0.528,0.568
			C766.709-774.374,766.914-764.763,773.867-765.225z"/>
		<path fill="#3C3C3B" d="M58.825-81.294c-0.585-0.514-1.228-0.725-1.851-0.735c0.286-0.431,0.452-0.978,0.42-1.65
			c-1.069-22.66-1.774-45.335-2.064-68.019c-0.285-22.378,0.793-44.929-0.602-67.271c0.047-0.004,0.091,0,0.139-0.006
			c16.747-2.327,30.394-24.109,14.998-37.116c-5.951-5.028-14.186-5.924-21.635-6.559c-13.697-1.169-27.487-1.641-41.231-1.76
			C4.81-264.43,2.458-264.5,0-264.579v5.778c2.958,0.109,5.809,0.213,8.473,0.238c15.048,0.145,30.759-0.017,45.652,2.341
			c8.274,1.31,16.186,4.933,16.563,14.5c0.398,10.08-8.976,15.189-17.243,17.583c-1.601,0.463-2.104,1.729-1.857,2.896
			c-0.431,0.315-0.764,0.8-0.839,1.492c-2.429,22.487-1.572,45.468-1.278,68.05c0.295,22.684,1.006,45.359,2.081,68.019
			c0.02,0.427,0.121,0.8,0.271,1.13c-0.743,2.7,0.905,5.976,3.852,6.42c0.11,0.017,0.216,0,0.326,0.003
			C81.371-52.772,103.891-26.979,125.01,0h7.77C110.411-29.024,86.405-57.068,58.825-81.294z"/>
		<path fill="#3C3C3B" d="M41.943-230.143c5.379-0.108,11.252-0.552,15.393-4.437c6.938-6.51,2.976-19.499-7.478-16.527
			c-3.208,0.912-1.854,5.881,1.379,5.005c4.617,5.567,3.999,8.96-1.855,10.18c-2.063,0.5-4.152,0.757-6.267,0.771
			c-3.733,0.234-7.526,0.092-11.266,0.13c-7.93,0.081-15.86,0.152-23.79,0.225c-2.687,0.025-5.373,0.046-8.06,0.069v4.803
			c4.669-0.027,9.338-0.059,14.007-0.083C23.315-230.056,32.636-229.957,41.943-230.143z"/>
		<path fill="#3C3C3B" d="M86.526-21.942c0.727-1.018,0.867-2.412-0.29-3.319c-17.959-14.065-45.394-10.795-66.692-9.981
			C13.175-35,6.613-34.681,0-34.14v5.844c5.515-0.638,11.095-1.1,16.772-1.351c20.849-0.923,46.055-3.901,64.585,7.536
			c-0.139,0.354-0.224,0.735-0.212,1.123c-0.083,0.052-0.167,0.097-0.249,0.161c-10.25,7.981-23.522,9.361-36.116,10.253
			C32.658-9.715,20.438-9.824,8.291-9.937C5.529-9.962,2.764-10.008,0-10.091v5.265c4.106,0.124,8.216,0.171,12.319,0.185
			c13.812,0.045,27.71,0.163,41.442-1.516c10.612-1.297,22.807-3.06,30.444-11.293C91.247-12.109,97.712-6.246,103.75,0h7.472
			C103.732-8.085,95.586-15.53,86.526-21.942z"/>
		<path fill="#3C3C3B" d="M747.332-249.759c-9.183,14.857,3.855,31.513,19.892,31.118c-1.97,23.329-1.421,47.099-1.809,70.484
			c-0.201,12.104-0.401,24.206-0.602,36.309c-0.172,10.418-1.442,21.594-0.169,31.994c-0.029,0.039-0.063,0.069-0.091,0.11
			C745.893-52.345,726.822-25.668,705.828,0h7.776c19.809-24.165,39.796-49.159,54.603-76.688c0.485-0.265,0.873-0.68,0.988-1.282
			c2.072-10.862,0.997-22.831,1.19-33.879c0.212-12.103,0.423-24.205,0.635-36.309c0.421-24.085,1.877-48.557,0.499-72.617
			c-0.123-2.15-2.524-2.513-3.605-1.229c-5.907-1.935-12.338-4.7-15.809-10.116c-4.971-7.757,0.062-16.977,7.211-21.238
			c10.995-6.553,27.009-5.946,40.684-5.443v-5.778C781.756-265.158,757.47-266.16,747.332-249.759z"/>
		<path fill="#3C3C3B" d="M772.265-234.8c-7.571-2.134-7.628-9.926-1.509-13.168c1.017-0.539,0.266-1.906-0.733-1.738
			c-8.434,1.416-10.681,12.417-3.669,17.284c4.974,3.452,12.239,2.565,17.915,2.56c5.244-0.005,10.487-0.031,15.73-0.062v-4.803
			c-5.244,0.044-10.487,0.089-15.73,0.158C780.587-234.521,775.854-233.788,772.265-234.8z"/>
		<path fill="#3C3C3B" d="M743.972-18.416C737.997-12.76,732.628-6.435,727.411,0h6.966c4.552-5.605,8.935-11.339,12.689-17.474
			c0.152-0.041,0.304-0.082,0.456-0.123c4.665,7.527,21.806,9.637,29.29,10.809C784.489-5.586,792.239-5.06,800-4.826v-5.265
			c-8.619-0.257-17.232-0.879-25.72-2.422c-5.207-0.946-10.299-2.261-15.31-3.963c-2.247-0.764-4.296-1.814-6.4-2.46
			c15.813-4.131,31.348-7.501,47.43-9.36v-5.844c-19.19,1.572-38.802,5.04-55.323,14.129
			C744.02-19.649,743.847-19.008,743.972-18.416z"/>
		<path fill="#3C3C3B" d="M579.175-524.11c9.875,0.626,20.024,1.61,29.678,3.844c7.062,1.634,14.097,4.512,18.607,10.444
			c3.942,5.186,5.597,12.441,2.002,18.257c-2.916,4.717-8.403,7.483-13.746,6.114c-3.041,45.405-7.156,90.74-12.258,135.959
			c-2.209,19.585-4.631,39.147-7.228,58.686c-2.316,17.427-2.767,38.125-13.224,53.035c-7.567,10.791-20.794,18.092-33.946,13.296
			c-13.442-4.901-20.875-18.714-22.78-32.178c-2.554-18.052,1.302-37.346,3.18-55.314c2.168-20.751,4.478-41.487,6.933-62.207
			c4.667-39.395,9.319-78.918,15.715-118.079c-10.883-0.051-22.082-8.839-16.518-20.565
			C542.8-528.01,565.654-524.967,579.175-524.11z M577.069-520.006c-10.155-0.539-26.163-2.827-34.351,4.688
			c-5.127,4.706-5.964,12.432,0.375,16.379c3.249,2.022,7.03,2.461,10.655,3.377c0.629-0.105,1.334,0.08,1.771,0.505
			c0.18,0.058,0.364,0.105,0.543,0.167c1.012,0.351,1.226,2.006,0.005,2.258c-0.101,0.021-0.204,0.034-0.306,0.053
			c-5.265,41.701-11.335,83.282-16.203,125.038c-2.157,18.502-4.201,37.018-6.126,55.546c-1.744,16.783-5.024,34.419-3.583,51.321
			c1.343,15.739,11.796,35.957,30.578,33.478c18.264-2.411,25.432-22.341,28.143-37.964c6.341-36.541,9.909-73.812,13.779-110.682
			c3.885-37.018,7.006-74.11,9.537-111.244c0.077-1.127,0.905-1.754,1.784-1.882c0.396-0.489,1.038-0.767,1.876-0.541
			c7.868,2.127,13.335-5.917,11.158-13.041c-1.978-6.469-8.199-10.332-14.229-12.381
			C601.37-518.704,588.705-519.389,577.069-520.006z"/>
		<path fill="#3C3C3B" d="M601.084-402.338c0.948,0.913,0.311,2.206-0.685,2.53c0.374,0.271,0.607,0.72,0.539,1.353
			c-3.296,30.358-6.533,60.723-9.799,91.084c-1.346,12.505-2.279,25.135-4.181,37.57c-1.55,10.136-4.514,20.54-11.617,28.25
			c-5.791,6.285-14.574,10.218-22.944,6.859c-8.563-3.437-13.186-12.208-14.766-20.856c-2.07-11.328-1.174-23.445-0.319-34.854
			c0.934-12.449,2.6-24.828,4.236-37.2c1.731-13.09,3.549-26.169,5.3-39.257c1.794-13.407,3.119-26.972,6.028-40.191
			c0.126-0.577,0.716-0.735,1.174-0.571c-1.316-4.357,14.911-5.288,17.034-5.26C581.299-412.748,593.538-409.604,601.084-402.338z
			 M597.294-397.183c-8.75,3.607-21.538,1.329-30.29-0.907c-1.4-0.358-9.874-2.648-12.551-5.467
			c-1.403,24.55-5.917,49.241-9.101,73.586c-2.905,22.213-6.485,44.932-4.923,67.4c0.74,10.64,5.574,26.027,18.937,25.566
			c11.983-0.414,19.114-13.362,21.993-23.429c3.005-10.51,3.649-21.655,4.805-32.475c1.265-11.848,2.54-23.695,3.792-35.545
			C592.376-351.366,594.868-374.271,597.294-397.183z M598.938-400.06c-6.424-3.48-12.188-6.9-19.504-8.367
			c-3.618-0.726-7.297-1.039-10.985-0.935c-1.08,0.031-11.249,1.279-12.399,1.909c0.345,0.166,0.587,0.561,0.479,0.97
			c-0.899,3.377,20.583,6.524,22.535,6.708c6.278,0.59,12.742-0.855,18.891,0.017c0.063,0.009,0.113,0.039,0.17,0.059
			C598.364-399.884,598.647-399.998,598.938-400.06z"/>
		<path fill="#3C3C3B" d="M552.053-511.456c0.906-1.629,3.354-2.58,5.121-2.016c1.117,0.356,1.787-1.308,0.79-1.885
			c-3.176-1.839-7.212-1.442-9.297,1.911c-1.948,3.133-1.026,7.972,2.252,9.839c0.38,0.217,0.76,0.284,1.114,0.249
			c5.044,3.764,16.24,3.643,20.461,4.214c13.274,1.795,26.601,4.135,39.95,5.248c0.308,0.025,0.574-0.039,0.805-0.157
			c3.069,0.442,6.212-1.042,7.456-4.379c1.613-4.33-2.002-11.39-7.253-10.234c-1.535,0.338-1.76,2.566-0.441,3.315
			c1.107,0.628,2.304,0.813,3.162,1.845c0.849,1.02,1.284,2.54,0.77,3.807c-0.49,1.205-1.916,2.168-3.403,2.571
			c-0.176-0.131-0.39-0.229-0.645-0.276c-10.475-1.944-21.188-2.969-31.748-4.372c-5.115-0.68-10.231-1.354-15.346-2.04
			c-3.566-0.478-9.126-0.638-12.649-2.867C551.946-508.005,551.071-509.689,552.053-511.456z"/>
		<path fill="#3C3C3B" d="M556.339-254.146c0.681,3.549-3.444,6.823-6.162,3.58c-2.783-3.322,1.611-7.229,5.057-5.82
			c0.711,0.291,1.051-0.792,0.493-1.178c-2.525-1.749-5.66-1.455-7.77,0.873c-2.048,2.26-1.749,5.583,0.149,7.833
			c1.901,2.253,5.108,3.023,7.685,1.446c2.358-1.443,3.842-4.68,2.785-7.345C558.033-256.132,556.054-255.637,556.339-254.146z"/>
		<path fill="#3C3C3B" d="M550.095-261.57c1.611-0.736,3.253-2.686,2.352-4.522c-0.344-0.702-1.378-0.467-1.58,0.208
			c-0.298,0.994-0.476,1.708-1.545,2.13c-0.759,0.3-1.968,0.361-2.384-0.504c-0.705-1.468,1.26-3.53,2.728-3.249
			c0.706,0.135,1.158-0.797,0.501-1.196c-3.458-2.101-7.388,2.702-5.305,5.909C546.007-261.029,548.284-260.743,550.095-261.57z"/>
		<path fill="#3C3C3B" d="M568.371-287.892c-1.457,0.513-0.895,2.697,0.638,2.334c3.884-0.921,3.606,5.384,2.557,7.422
			c-1.323,2.568-4.006,4.119-6.893,3.428c-5.819-1.394-5.695-9.744,0.262-10.734c0.839-0.139,0.628-1.478-0.201-1.461
			c-3.991,0.083-7.161,3.449-7.117,7.455c0.047,4.323,4.153,7.519,8.278,7.624c4.514,0.115,8.197-3.513,9.021-7.809
			C575.646-283.448,573.222-289.6,568.371-287.892z"/>
		<path fill="#3C3C3B" d="M549.334-295.309c2.589,0.596,5.436-0.526,6.248-3.194c0.644-2.115-0.167-5.107-2.807-5.036
			c-1.1,0.03-1.303,1.595-0.246,1.91c1.157,0.345,1.003,1.829,0.525,2.688c-0.676,1.213-2.298,1.414-3.522,0.985
			c-3.093-1.083-2.065-5.148,0.698-5.917c0.429-0.119,0.423-0.741-0.002-0.861c-2.469-0.7-4.615,1.268-5.06,3.674
			C544.654-298.271,546.689-295.917,549.334-295.309z"/>
		<path fill="#3C3C3B" d="M561.014-314.918c3.092,0.138,5.676-2.083,5.808-5.207c0.086-2.048-1.881-6.542-4.587-5.268
			c-0.394,0.186-0.444,0.695-0.28,1.042c0.342,0.724,1.151,1.032,1.583,1.717c0.404,0.639,0.596,1.405,0.579,2.159
			c-0.041,1.749-1.386,2.907-3.122,2.803c-4.335-0.26-4.17-6-0.62-7.433c1.049-0.424,0.683-2.033-0.476-1.741
			c-2.898,0.729-4.94,3.523-4.777,6.521C555.292-317.209,558.005-315.052,561.014-314.918z"/>
		<path fill="#3C3C3B" d="M583.684-385.401c-1.37,1.916-1.228,4.671,0.876,5.997c1.804,1.138,4.312,0.866,5.938-0.462
			c1.672-1.365,3.171-4.524,2.376-6.676c-0.251-0.681-1.106-0.821-1.521-0.202c-0.76,1.13-0.784,2.611-1.521,3.78
			c-0.726,1.148-1.966,2.021-3.379,1.616c-1.6-0.459-1.28-2.216-0.368-3.213c1.049-1.146,2.883-1.555,4.318-2.017
			c0.676-0.217,0.51-1.127-0.164-1.188C587.802-387.987,585.2-387.524,583.684-385.401z"/>
		<path fill="#3C3C3B" d="M152.281-545.134c-6.652-9.781-3.838-23.844,5.694-30.747c7.327-5.306,17.107-5.1,24.345-0.518
			c4.845-8.544,12.962-16.405,20.701-22.827c-9.264-12.433-5.958-30.345,3.323-42.02c8.595-10.813,24.031-15.564,37.189-11.383
			c0.902-7.705,3.365-15.428,5.142-22.975c1.805-7.667,3.603-15.375,5.865-22.923c-11.36-4.446-15.124-18.681-11.218-30.216
			c2.044-6.038,5.989-11.921,11.867-14.779c6.32-3.073,13.829-1.714,20.105,0.81c12.6,5.066,20.122,18.282,15.122,31.5
			c-3.306,8.741-12.685,14.921-21.976,14.727c-3.532,16.14-8.106,32.148-12.441,48.074c-0.254,0.936-0.883,1.496-1.609,1.741
			c7.074,5.714,12.183,14.186,12.567,23.127c0.988,0.143,1.91,0.77,2.211,1.918c4.213-0.593,8.792,0.205,13.012,0.473
			c5.361,0.34,10.728,0.638,16.093,0.916c8.724,0.451,17.551,0.5,26.262,1.253c3.072-7.265,10.317-12.991,18.165-13.991
			c13.165-1.677,24.974,7.76,26.549,20.823c1.575,13.064-8.051,24.886-20.973,26.715c-10.089,1.428-19.047-3.891-22.501-12.272
			c-0.069,0.017-0.134,0.039-0.207,0.05c-9.05,1.385-19.689-0.583-28.778-1.452c-9.81-0.937-19.642-2.263-29.311-4.195
			c-3.525,10.28-11.373,18.759-22.779,21.492c-10.547,2.527-22.289-1.182-31.49-7.687c-4.168,4.312-8.142,8.715-11.943,13.366
			c-2.631,3.219-5.691,8.246-9.207,10.942c3.822,10.456,3.169,23.232-8.154,28.8C173.188-531.12,158.919-535.375,152.281-545.134z
			 M327.638-610.201c0.679,0.336,1.24,0.954,1.388,1.79c1.056,5.975,0.823,11.273,6.415,15.075
			c4.073,2.769,8.957,3.489,13.716,2.395c9.575-2.201,16.141-10.973,14.881-20.825c-1.318-10.312-10.641-17.464-20.958-16.049
			C333.507-626.503,328.959-618.717,327.638-610.201z M268.46-606.688c9.4,0.787,18.79,1.728,28.191,2.516
			c9.045,0.758,18.955,0.128,27.868,1.958c-0.163-1.044-0.275-2.108-0.273-3.209c-0.162-0.178-0.299-0.403-0.395-0.694
			c-1.013-3.1-1.102-6.231-0.476-9.208c-9.307,0.639-18.808,0.236-28.093-0.062c-7.93-0.254-17.833,0.416-25.708-1.804
			C269.685-613.632,269.287-610.093,268.46-606.688z M260.786-702.351c0.334-0.124,0.71-0.171,1.124-0.096
			c9.249,1.68,18.904-0.172,23.244-9.599c4.504-9.782-0.535-20.226-9.667-24.903c-4.717-2.416-11.577-4.296-16.743-2.469
			c-4.801,1.698-8.14,6.324-9.986,10.856C244.447-717.979,247.789-703.753,260.786-702.351z M247.451-651.071
			c1.237,0.587,2.444,1.264,3.617,2.008c0.015-0.104,0.021-0.205,0.049-0.314c4.11-15.901,8.505-31.973,14.174-47.427
			c-1.196-0.22-2.378-0.548-3.534-1.007c-0.5,0.4-1.155,0.633-1.942,0.549c-0.739-0.078-1.447-0.201-2.14-0.346
			c-1.294,8.044-3.101,16.023-4.864,23.974c-1.658,7.475-2.823,15.291-5.343,22.525
			C247.463-651.095,247.456-651.085,247.451-651.071z M237.876-586.157c17.589-0.115,27.646-16.95,26.348-32.94
			c-0.733-0.198-1.374-0.8-1.558-1.844c-2.702-15.328-13.647-28.845-30.498-27.994c-16.986,0.858-28.691,15.624-29.536,32.015
			C201.76-599.995,222.324-586.055,237.876-586.157z M185.478-573.959c0.757,0.708,1.482,1.457,2.136,2.285
			c0.766-0.045,1.533,0.298,2.041,1.208c0.115,0.206,0.225,0.418,0.336,0.628c2.507-3.528,6.44-6.906,9.021-9.7
			c3.777-4.09,7.603-8.179,11.988-11.618c-2.207-1.749-4.227-3.66-6.013-5.672c-2.895,3.353-5.829,6.671-8.705,10.042
			C192.691-582.58,189.464-577.786,185.478-573.959z M179.021-540.056c12.601-3.674,11.46-18.313,6.326-27.528
			c-0.17-0.306-0.262-0.61-0.311-0.908c-5.939-5.765-15.379-8.473-22.877-3.958c-7.881,4.747-10.856,15.935-5.963,23.787
			C160.774-541.314,170.732-537.64,179.021-540.056z"/>
		<path fill="#3C3C3B" d="M642.708-298.254c9.31,0.52,19,8.144,17.221,18.012c-0.27,1.495-0.748,2.945-1.368,4.333l0.001,0
			c0.728,0.32,1.1,1.076,1.022,1.848c-0.01,0.098-0.019,0.195-0.029,0.292c-0.01,0.094-0.038,0.185-0.068,0.273
			c0.395,0.058,0.747,0.283,1.053,0.69c0.354,0.333,0.705,0.672,1.05,1.014c0.699,0.678,1.394,1.361,2.086,2.045
			c1.386,1.372,2.757,2.758,4.131,4.142c2.47,2.486,4.94,4.971,7.323,7.542c0.153-0.146,0.333-0.275,0.543-0.386
			c6.436-3.361,13.571-4.384,20.312-3.302c0.86-2.983,1.734-5.957,2.447-8.986c0.728-3.091,1.014-6.581,2.264-9.528
			c-7.363-3.902-10.556-13.666-6.114-21.183c5.811-9.833,17.876-9.425,26.27-3.251c7.89,5.804,9.49,17.635,2.212,24.728
			c-2.979,2.904-7.005,4.279-10.958,4.172c-0.8,3.378-1.617,6.75-2.491,10.109c-0.679,2.61-1.136,5.565-2.604,7.856
			c4.47,2.591,8.356,6.308,11.183,11.063c7.528,12.666,4.964,29.278-3.101,41.11c-8.094,11.876-22.71,15.821-35.995,10.676
			c-12.571-4.869-22.135-17.108-22.447-30.758c-0.195-8.531,2.772-17.042,8.253-23.369c-4.812-5.417-9.634-10.47-15.329-15.025
			c-0.724-0.579-0.846-1.354-0.613-2.018c-1.741,0.756-3.604,1.218-5.543,1.291c-0.325,0.729-1.08,1.317-2.032,1.295
			c-9.553-0.223-17.248-9.432-16.741-18.699C625.152-291.56,633.426-298.772,642.708-298.254z M704.796-282.772
			c0.445,0.221,0.74,0.581,0.91,0.991c4.54,2.243,10.129,2.494,14.054-1.15c5.1-4.733,4.549-12.987-0.556-17.421
			c-5.875-5.102-15.204-6.759-20.274,0.298C694.211-293.484,698.369-285.973,704.796-282.772z M698.266-261.299
			c2.518,0.591,4.961,1.483,7.27,2.662c-0.233-2.708,0.633-5.582,1.125-8.214c0.591-3.161,1.231-6.31,1.886-9.458
			c-1.726-0.457-3.369-1.212-4.821-2.273c-0.286,2.713-1.312,5.446-2.119,7.994C700.619-267.472,699.53-264.335,698.266-261.299z
			 M662.887-216.724c5.437,13.906,22.203,23.554,36.806,18.154c14.328-5.298,21.705-25.622,17.536-39.582
			c-5.11-17.109-24.407-24.303-39.892-16.218c-0.493,0.257-0.95,0.303-1.351,0.208C664.561-245.707,657.429-230.686,662.887-216.724
			z M656.036-271.734c-1.329,1.688-2.909,3.165-4.692,4.304c0.196,0.064,0.393,0.155,0.586,0.3
			c5.765,4.304,11.099,9.803,14.864,16.004c2.02-1.949,4.327-3.605,6.874-4.926c-3.842-3.139-7.535-6.463-11.239-9.762
			C660.53-267.505,657.57-269.384,656.036-271.734z M629.03-280.75c0.359,8.44,6.916,10.646,13.408,13.514
			c5.522-2.094,10.518-5.776,12.578-11.541c1.548-4.333,0.558-8.163-3.138-10.948c-2.843-2.142-5.914-3.916-9.54-4.081
			C635.001-294.141,628.715-288.167,629.03-280.75z"/>
		<path fill="#3C3C3B" d="M555.594-589.034c-2.079,1.415-4.157,2.83-6.236,4.245c-1.104-0.61-2.207-1.22-3.311-1.83
			c-2.093-1.474-3.876-3.574-5.645-5.43c-2.807-2.946-5.592-5.913-8.389-8.869c-6.291-6.651-12.583-13.303-18.874-19.954
			c-10.161-10.743-23.255-21.605-30.085-35.11c-0.151-0.967-0.093-1.896,0.7-2.795c1.21-1.372,3.39-1.822,4.979-0.929
			c1.465,0.823,3.398-1.027,2.046-2.364c-2.752-2.721-7.32-3.563-10.481-0.969c-3.075,2.524-4.242,8.044-1.41,11.174
			c0.397,0.439,0.882,0.674,1.381,0.774c3.155,8.722,10.011,15.254,16.582,22.269c9.736,10.393,19.549,20.715,29.327,31.069
			c6.169,6.532,14.209,18.992,24.164,19.729c6.561,0.486,13.486-5.391,11.241-12.226c-0.008-0.023-0.02-0.042-0.028-0.065
			c-0.207-0.383-0.423-0.764-0.645-1.143C559.062-593.619,555.062-592.493,555.594-589.034z"/>
		<path fill="#3C3C3B" d="M370.578-540.931c0.114-0.177,0.236-0.353,0.391-0.521c16.284-17.787,32.976-35.194,50.116-52.16
			c16.518-16.35,33.088-33.944,52.035-47.55c-6.893-5.867-11.822-13.646-10.159-23.29c1.336-7.746,7.005-14.332,15.044-15.184
			c8.365-0.886,15.812,4.694,21.572,10.086c10.258,9.604,19.653,20.332,29.379,30.47c9.563,9.968,19.405,19.771,28.079,30.543
			c6.129,7.612,14.945,17.398,14.322,27.86c-0.462,7.754-6.62,14.425-14.021,16.326c-8.252,2.119-16.426-1.691-21.752-7.872
			c-14.353,17.098-30.477,32.839-45.869,48.992c-8.005,8.401-16.008,16.804-24.019,25.2c-3.831,4.016-7.662,8.031-11.492,12.046
			c-3.204,3.359-8.88,7.459-11.682,11.7c0.491,1.109,0.407,2.487-0.628,3.31l-0.323,0.256
			c19.508,47.509,9.179,104.799-27.528,141.278c-33.125,32.919-83.682,46.588-128.653,33.542
			c-44.532-12.918-80.675-49.271-92.461-94.19c-12.114-46.172,4.408-95.516,40.02-126.863
			C269.565-549.183,325.173-558.756,370.578-540.931z M227.146-501.477c-31.401,34.945-40.109,84.836-21.142,128.045
			c16.982,38.686,54.363,67.66,96.149,74.212c43.797,6.868,90.798-11.896,117.654-47.22c26.602-34.99,32.044-83.748,14.437-123.897
			c-0.738-1.682-0.112-3.194,0.994-4.115c0.575-3.332,3.714-5.552,5.991-7.938c4.179-4.381,8.358-8.761,12.537-13.142
			c8.357-8.761,16.718-17.519,25.081-26.275c17.356-18.172,34.154-37.27,52.646-54.299c0.701-0.646,1.554-0.789,2.349-0.614
			c0.686-2.427,3.837-4.06,5.739-1.522c4.678,6.242,13.683,10.652,20.562,4.815c5.804-4.923,4.517-11.144,1.414-16.888
			c-0.157-0.451-0.378-0.831-0.645-1.143c-1.715-2.927-3.817-5.697-5.589-8.062c-9.106-12.16-19.979-22.918-30.476-33.854
			c-10.929-11.387-21.411-24.955-33.97-34.554c-6.759-5.166-17.35-7.82-20.742,2.765c-2.696,8.414,3.521,17.194,8.671,23.297
			c1.258,1.49-0.169,3.688-1.813,3.432c-15.758,17.806-34.418,33.245-51.318,49.965c-17.143,16.96-33.839,34.363-50.127,52.146
			c-0.931,1.016-2.011,1.216-2.969,0.914c-0.664,0.571-1.604,0.834-2.726,0.483C319.687-550.617,263.369-541.788,227.146-501.477z"
			/>
		<path fill="#3C3C3B" d="M560.913-591.457c0.222,0.379,0.438,0.76,0.645,1.143C561.4-590.766,561.18-591.146,560.913-591.457z"/>
		<path fill="#3C3C3B" d="M219.566-466.424c10.559-26.296,35.323-52.446,64.817-55.399c0.763-0.557,1.791-0.752,2.682-0.156
			c27.454,18.363,52.635,40.648,77.299,62.543c12.665,11.243,25.112,22.731,37.334,34.454c6.21,5.957,12.552,11.86,18.492,18.09
			c3.808,3.994,6.604,7.866,6.565,13.538c-0.009,1.269-0.658,2.09-1.531,2.5c0.648,0.755,0.919,1.821,0.432,3.091
			c-10.964,28.625-35.353,51.307-63.663,62.455c-52.956,20.854-112.897-4.015-138.42-54.442
			C210.064-406.44,208.391-438.594,219.566-466.424z M286.455-516.288c10.457,31.729,35.507,56.527,58.69,79.562
			c10.822,10.752,22.29,20.982,35.225,29.145c6.153,3.882,12.609,7.257,19.416,9.844c6.763,2.57,13.979,3.274,20.71,5.67
			c0.199,0.071,0.377,0.173,0.544,0.286c0.028-0.012,0.058-0.019,0.086-0.03c-0.249-0.321-0.443-0.697-0.552-1.138
			c-1.89-7.712-9.137-13.047-14.578-18.402c-5.517-5.429-11.085-10.806-16.701-16.133c-11.231-10.654-22.649-21.11-34.249-31.362
			C332.686-478.609,309.029-496.799,286.455-516.288z M222.178-452.163c-13.743,53.385,20.965,108.861,73.143,124.029
			c48.921,14.222,101.238-13.552,122.392-58.438c-13.383-0.005-28.039-7.642-39.04-14.319c-13.519-8.205-25.52-18.741-36.774-29.785
			c-23.909-23.461-53.624-50.675-59.926-85.064c-0.058-0.314-0.053-0.597-0.013-0.857c-13.36,5.856-26,12.441-36.482,22.958
			C234.103-482.227,226.186-467.733,222.178-452.163z"/>
		<path fill="#3C3C3B" d="M265.06-472.587c6.043-0.917,11.131-6.169,10.657-12.417c-0.235-3.097-4.971-2.51-5.267,0.346
			c-0.783,7.554-11.84,9.25-12.98,0.896c-1.257-9.212,10.99-11.097,15.388-4.251c1.236,1.923,4.212,0.524,3.225-1.634
			c-2.693-5.883-9.522-8.973-15.751-7.181c-6.224,1.791-9.458,8.407-8.271,14.573C253.252-476.067,258.672-471.617,265.06-472.587z"
			/>
		<path fill="#3C3C3B" d="M276.372-460.744c2.865,3.285,7.801,3.582,11.288,1.13c1.675-1.178,3.567-3.268,2.317-5.358
			c-1.234-2.063-3.973-2.835-5.606-0.882c-0.472,0.564-0.345,1.629,0.154,2.136c0.099,0.101,0.231,0.192,0.371,0.282
			c-2.15,1.262-5.173,0.454-5.814-2.372c-0.857-3.779,3.512-6.159,6.595-4.255c1.855,1.146,3.442-1.424,1.832-2.763
			c-3.023-2.513-7.902-2.387-10.777,0.322C273.49-469.451,273.5-464.039,276.372-460.744z"/>
		<path fill="#3C3C3B" d="M236.266-394.524c4.895-1.108,9.949-6.487,8.364-11.812c-0.62-2.081-3.926-2.179-4.031,0.265
			c-0.145,3.371-1.96,6.391-5.624,6.875c-3.223,0.426-5.571-2.273-6.001-5.258c-0.468-3.249,1.191-6.17,4.384-7.144
			c3.47-1.057,6.862,0.508,9.469,2.716c1.227,1.039,2.751-0.693,2.179-1.939c-2.345-5.097-8.921-6.757-13.939-5.058
			c-5.577,1.889-8.171,7.87-6.787,13.422C225.634-397.025,230.622-393.247,236.266-394.524z"/>
		<path fill="#3C3C3B" d="M262.158-402.368c-1.096,0.602-1.441,2.44-0.182,3.118c1.803,0.97,0.476,2.669-1.044,3.322
			c-1.866,0.802-4.207,0.478-5.85-0.704c-4.475-3.219-0.038-9.755,4.571-9.435c2.36,0.164,2.46-3.173,0.247-3.579
			c-4.775-0.878-9.388,2.452-10.874,6.94c-1.546,4.671,1.063,9.436,5.513,11.23c3.979,1.605,9.425,0.847,11.848-3.026
			C268.164-397.343,266.796-404.919,262.158-402.368z"/>
		<path fill="#3C3C3B" d="M247.939-427.466c5.137,0.716,11.011-2.607,11.093-8.238c0.064-4.443-4.103-9.7-8.946-8.333
			c-2.171,0.613-2.186,3.956,0.27,4.111c2.275,0.144,4.231,1.699,4.112,4.201c-0.138,2.924-3.754,4.13-6.215,3.707
			c-2.989-0.515-5.408-3.56-5.29-6.599c0.139-3.565,3.584-5.855,6.933-5.463c1.507,0.176,1.904-2.077,0.517-2.562
			c-5.042-1.767-10.614,1.761-11.491,6.995C237.963-433.924,242.226-428.263,247.939-427.466z"/>
		<path fill="#3C3C3B" d="M385.785-367.142c3.931,1.201,9.157-0.446,11.102-4.25c0.955-1.868-1.252-4.356-3.016-2.611
			c-1.608,1.592-3.408,2.908-5.822,2.626c-1.963-0.23-3.286-1.612-3.54-3.557c-0.216-1.653,0.406-3.581,2.247-3.904
			c2.086-0.367,4.229,1.238,4.393,3.312c0.15,1.924,3.049,1.536,3.251-0.213c0.47-4.062-2.964-7.322-6.895-7.608
			c-4.233-0.309-7.449,3.178-7.698,7.248C379.564-372.12,381.914-368.324,385.785-367.142z"/>
		<path fill="#3C3C3B" d="M366.528-354.448c3.656,0.86,7.699-0.929,9.439-4.276c1.272-2.446-2.273-4.878-3.624-2.402
			c-1.615,2.961-6.734,3.59-7.165-0.572c-0.16-1.541,0.531-2.979,2.103-3.345c1.442-0.335,3.698,0.275,4.479,1.66
			c0.599,1.062,2.308,0.536,2.061-0.716c-0.651-3.296-3.449-5.316-6.876-5.022c-3.62,0.31-6.193,3.397-6.188,6.978
			C360.76-358.604,363.002-355.278,366.528-354.448z"/>
		<path fill="#3C3C3B" d="M215.137-800h7.974c9.016,12.041,25.729,20.646,39.616,24.42c26.78,7.279,54.984,4.833,81.984-0.662
			c0.77-7.91,1.762-15.799,2.93-23.658c0.005-0.033,0.011-0.067,0.016-0.101h6.798c-0.643,4.281-1.24,8.568-1.771,12.863
			c-0.388,3.137-0.731,6.279-1.05,9.425c1.976-0.441,3.944-0.895,5.904-1.359c22.818-5.417,45.465-11.919,67.844-19.328
			c-0.82-0.533-1.639-1.068-2.461-1.601h27.174c-3.305,1.179-6.615,2.345-9.932,3.489c8.872,5.584,17.85,11.034,26.964,16.244
			c2.026-6.533,3.875-13.121,5.607-19.732h7.213c-1.587,5.908-3.246,11.789-4.999,17.632c-0.554,1.846-1.122,3.69-1.702,5.531
			c10.766,5.988,21.705,11.647,32.862,16.793c14.09,6.499,28.647,12.044,43.674,15.96c13.041,3.398,28.502,7.359,41.906,3.634
			c27.719-7.706,19.816-38.656,10.074-59.55h7.179c0.766,1.674,1.513,3.357,2.22,5.061c8.65,20.832,10.44,51.255-15.581,59.979
			c-13.021,4.365-27.722,1.596-40.733-1.342c-16.135-3.642-31.734-9.276-46.846-15.956c-12.507-5.528-24.753-11.724-36.772-18.362
			c-8.092,24.318-18.637,47.987-33.321,69.032c-14.168,20.306-36.645,49.307-64.619,45.094c-1.513-0.228-2.263-1.175-2.437-2.284
			c-6.433,2.25-13.927,1.685-19.76-1.97c-9.646-6.044-11.891-19.569-6.395-29.168c1.248-2.18,3.023-4.1,5.116-5.682
			c-6.162-13.507-6.595-29.289-6.779-43.921c-0.125-9.916,0.271-19.822,1.053-29.7c-3.121,0.594-6.244,1.163-9.374,1.678
			c-30.798,5.068-64.237,5.538-92.932-8.454C230.764-781.371,220.867-789.835,215.137-800z M376.165-671.539
			c4.08-7.497,0.776-15.67-5.187-20.797c-0.301-0.258-0.514-0.544-0.679-0.84c-4.262-0.398-8.605-0.71-12.388,0.549
			c0.106,0.185,0.198,0.375,0.307,0.558c1.891,3.179-2.946,5.949-4.927,2.88c-0.096-0.148-0.177-0.303-0.271-0.453
			c-0.735,0.73-1.427,1.575-2.056,2.582c-3.962,6.338-2.928,15.753,3.396,20.156C361.186-662.151,372.087-664.044,376.165-671.539z
			 M349.831-738.031c0.227,13,0.311,27.175,5.22,39.46c5.746-2.357,12.425-2.516,17.55,0.633c0.77-0.222,1.619-0.158,2.428,0.353
			c9.934,6.267,12.724,21.041,6.346,30.787c-0.978,1.495-2.159,2.793-3.464,3.937c16.775,0.784,30.827-14.132,41.11-25.725
			c10.016-11.291,18.486-23.896,25.676-37.151c8.359-15.41,14.974-31.655,20.442-48.296c-11.095-6.303-21.99-12.971-32.72-19.822
			c-26.623,9.019-53.848,17.523-81.442,23.262C350.081-759.764,349.641-748.898,349.831-738.031z"/>
		<path fill="#3C3C3B" d="M479.947,0h-7.213c0.811-3.097,1.604-6.198,2.363-9.304c-8.29,3.221-16.626,6.316-25.002,9.304H422.92
			c-1.124-0.728-2.25-1.455-3.366-2.189c-19.592-12.907-38.637-26.671-57.043-41.233C359.414-29.02,356.638-14.547,354.455,0h-6.798
			c2.403-16.137,5.424-32.213,8.839-48.219c-5.868-4.736-11.678-9.544-17.404-14.448c-11.236-9.621-22.27-19.528-32.917-29.81
			c-5.724,2.994-11.423,6.038-17.079,9.156c-13.047,7.193-26.012,14.62-38.625,22.553c-10.957,6.891-22.32,14.979-29.03,26.333
			c-7.787,13.179-5.478,24.886,1.67,34.434h-7.974c-6.017-10.676-7.435-23.229-0.672-36.069c5.982-11.359,16.43-19.87,26.873-26.966
			c13.774-9.361,28.514-17.517,43.075-25.577c5.486-3.037,11.015-5.995,16.566-8.912c-9.162-9.122-17.37-18.858-22.38-30.744
			c-3.512,1.476-7.367,2.083-11.197,1.472c-10.985-1.753-19.289-13.101-17.551-24.139c1.236-7.85,9.586-18.284,18.368-19.331
			c-8.774-8.733-9.059-22.994-1.864-32.966c8.763-12.144,24.769-15.784,38.93-14.423c17.367,1.669,34.714,8.21,50.808,14.655
			c12.88,5.158,25.44,11.068,37.703,17.549c3.811-11.417,7.798-22.773,12.01-34.049c6.055-16.206,12.543-32.251,19.486-48.097
			c5.35-12.21,10.901-25.063,20.677-34.477c19.989-19.25,45.438-6.765,55.784,15.761c6.472,14.09,8.048,30.013,8.241,45.34
			c0.228,18.128-0.817,36.335-1.966,54.421c-0.341,5.365-0.722,10.744-1.125,16.128c21.36-3.521,42.847-5.539,64.213-5.6
			c1.915-6.454,6.232-12.666,11.975-12.011c4.874-9.259,22.725-3.263,27.66,3.436c3.584,4.865,4.61,10.585,3.629,15.952
			c24.48,15.097,23.608,48.925,9.145,70.95c-12.437,18.938-31.3,32.813-51.424,44.185C586.867-37.527,599.896-19.771,608.941,0
			h-7.179c-1.581-3.391-3.21-6.517-4.744-9.236c-8.447-14.973-18.979-28.57-30.693-41.094c-9.903,5.321-19.99,10.106-29.662,14.647
			c-17.587,8.257-35.427,15.974-53.474,23.172C482.151-8.325,481.064-4.157,479.947,0z M561.277-55.582
			c-5.264-5.349-10.724-10.507-16.318-15.485c-14.179-12.617-29.2-24.239-44.457-35.533c-3.734,28.948-8.703,57.789-15.37,86.065
			c17.985-7.362,35.728-15.239,53.165-23.559C545.901-47.721,553.644-51.504,561.277-55.582z M499.301-161.212
			c-10.271,1.832-20.51,3.933-30.716,6.401c-5.806,1.404-11.583,2.924-17.345,4.497c12.415,8.469,24.628,17.24,36.73,26.134
			c2.321,1.706,4.643,3.417,6.963,5.128C496.665-133.08,498.113-147.141,499.301-161.212z M576.956-167.709
			c2.102,7.614,10.906,12.063,18.37,10.389c9.035-2.027,14.702-10.915,11.612-19.836c-2.838-8.194-13.861-11.514-20.525-5.635
			c-1.089,0.961-2.432,0.846-3.339,0.141c-1.046,0.728-2.076,1.477-2.947,2.431C577.18-176.988,575.783-171.959,576.956-167.709z
			 M506.261-162.414c-1.294,16.035-2.857,32.123-4.81,48.195c19.859,14.764,39.439,29.972,57.299,47.114
			c2.831,2.717,5.624,5.496,8.371,8.327c16.904-9.489,32.926-20.693,45.205-35.405c15.719-18.832,22.912-52.104-0.333-67.749
			c-2.301,4.213-5.955,7.757-10.616,9.823c-11.87,5.261-27.565-0.666-30.991-13.79c-0.34-1.301-0.432-2.898-0.306-4.631
			C548.662-168.382,527.391-165.933,506.261-162.414z M399.888-182.17c1.849,1.013,3.692,2.036,5.527,3.073
			c12.909,7.299,25.467,15.175,37.808,23.385c18.663-5.46,37.627-10.068,56.718-13.508c0.914-11.816,1.656-23.636,2.212-35.447
			c1.326-28.125,6.154-65.544-13-89.065c-9.646-11.845-24.666-15.365-36.781-4.906c-9.586,8.276-14.967,20.501-19.981,31.837
			C420.158-239.144,409.424-210.861,399.888-182.17z M385.665-136.081c15.958-6.173,32.312-11.931,48.931-17.047
			c-8.422-5.506-16.949-10.851-25.631-15.944c-3.731-2.189-7.495-4.327-11.284-6.42
			C393.434-162.432,389.446-149.285,385.665-136.081z M285.935-148.487c-0.08-7.839-5.943-13.767-13.045-16.049
			c-0.492-0.158-0.897-0.388-1.224-0.667c-7.662,2.679-15.164,7.299-15.559,16.637c-0.329,7.771,6.367,15.375,14.22,15.43
			C278.457-133.079,286.018-140.309,285.935-148.487z M306.813-100.584c22.041-11.367,44.577-21.77,67.581-31.045
			c1.088-0.438,2.183-0.872,3.275-1.307c4.335-15.377,8.967-30.672,13.927-45.859c-20.082-10.706-40.972-19.897-62.767-26.528
			c-14.518-4.417-31.193-9.12-45.818-2.563c-12.934,5.798-21.089,22.786-9.087,33.893c1.089,1.008,1.236,2.209,0.848,3.241
			c11.247,2.708,19.607,14.468,17.481,26.08c-1.057,5.777-4.689,10.841-9.502,14.141
			C288.981-119.19,297.593-109.607,306.813-100.584z M373.578-118.082c0.584-2.175,1.198-4.342,1.794-6.515
			c-0.983,0.397-1.973,0.779-2.955,1.18c-20.505,8.398-40.615,17.757-60.331,27.875c11.614,10.984,23.564,21.62,35.816,31.886
			c3.355,2.812,6.734,5.594,10.132,8.354C362.693-76.376,368-97.32,373.578-118.082z M476.979-17.249
			c7.233-31.026,12.832-62.504,16.974-94.177c-4.598-3.367-9.207-6.716-13.817-10.057c-12.403-8.987-24.905-17.861-37.628-26.398
			c-20.031,5.774-39.781,12.522-59.197,20.114c-4.074,14.609-7.892,29.288-11.472,44.014c-2.686,11.048-5.316,22.14-7.791,33.27
			c20.752,16.547,42.259,32.127,64.532,46.581c1.5,0.973,3.013,1.931,4.519,2.897C447.859-6.043,462.495-11.472,476.979-17.249z"/>
		<path fill="#3C3C3B" d="M474.33-84.765c0.807,38.02-48.357,59.798-73.045,28.533c-11.608-14.701-10.2-35.281-0.951-50.904
			c7.622-12.875,23.957-23.118,38.778-18.119c0.144-0.011,0.281-0.034,0.436-0.029C460.407-124.61,473.916-104.251,474.33-84.765z
			 M439.548-118.355c-1.084-0.035-1.899-0.476-2.456-1.114c-18.523-1.452-32.314,11.476-36.214,30.038
			c-3.793,18.052,5.687,36.807,24.635,40.888c18.171,3.914,36.9-8.847,40.96-26.707C470.55-93.184,460.276-117.686,439.548-118.355z
			"/>
		<path fill="#3C3C3B" d="M13.667-377.79c-4.514,0.986-9.084,2.103-13.667,3.032v-4.3c3.006-1.009,5.764-2.061,7.595-2.558
			c5.951-1.615,11.922-3.158,17.896-4.681c10.137-2.584,20.57-5.939,30.983-7.637c-1.029-3.398-1.855-6.881-2.352-10.373
			c-12.127,4.313-25.461,6.646-38.012,9.25c-5.35,1.11-10.727,2.127-16.111,3.067v-5.122c2.295-0.434,4.104-0.773,4.494-0.861
			c5.695-1.278,11.385-2.595,17.068-3.926c10.648-2.494,21.268-5.9,32.036-7.822c-0.435-9.404,1.666-18.405,7.825-25.002
			c-0.23-0.726-0.213-1.557,0.219-2.437c1.794-3.66,4.005-7.055,6.552-10.147c-6.184-6.819-11.628-14.426-16.825-21.977
			c-5.633-8.185-12.767-17.041-16.164-26.452c-6.02,1.817-12.687,1.832-19.11-0.336C10-498.126,5.131-501.893,1.67-506.619
			c-0.552,0.189-1.11,0.366-1.67,0.537v-36.14c1.371-2.099,3.153-3.992,4.625-5.288c6.109-5.382,14.237-8.906,22.478-8.404
			c18.409,1.122,32.699,21.525,28.346,39.078c-0.486,1.959-1.161,3.806-1.983,5.544c0.438,0.213,0.844,0.55,1.172,1.068
			c10.161,16.054,21.749,32.306,29.832,49.585c12.783-6.97,28.205-9.031,42.464-4.281c21.731,7.239,37.835,28.864,38.841,51.716
			c1.031,23.431-13.153,46.455-33.997,56.911c-23.475,11.776-49.368,5.266-64.775-15.873c-3.184-4.369-6.19-9.962-8.565-16.081
			C44.136-383.371,28.327-380.991,13.667-377.79z M46.699-513.079c6.805-12.991-0.311-27.373-12.67-33.828
			c-9.144-4.775-30.116,0.492-29.095,13.357c0.162,2.027-1.666,2.964-3.311,2.625c-0.42,6.151,0.873,12.548,3.947,17.82
			c0.852,0.471,1.445,1.409,1.575,2.357c2.097,2.825,4.773,5.215,8.075,6.878C26.253-498.312,40.837-501.889,46.699-513.079z
			 M70.646-450.063c3.192-3.374,6.823-6.298,10.737-8.766c-11.824-14.379-21.285-31.45-31.123-47.215
			c-2.852,3.705-6.529,6.629-10.685,8.617c6.108,7.092,10.475,16.164,15.596,23.97C60.285-465.663,65.77-458.024,70.646-450.063z
			 M63.03-395.739c3.979,13.583,12.524,26.774,25.124,33.768c24.842,13.789,54.816-3.302,65.814-26.917
			c11.136-23.91,1.837-53.034-21.253-65.976c-23.075-12.934-53.394-2.724-64.923,20.778c-0.483,0.985-1.223,1.535-2.032,1.749
			C60.603-420.188,59.146-409.001,63.03-395.739z"/>
		<path fill="#3C3C3B" d="M797.884-537.084c0.217-1.715,1.04-3.49,2.116-5.138v36.14c-4.509,1.382-9.254,2.234-13.785,3.275
			c-5.89,1.354-11.774,2.826-17.717,3.943c0.928,18.981-6.618,37.248-20.367,49.439c2.834,6.359,5.591,12.75,8.491,19.081
			c2.172,4.743,5.066,9.477,6.7,14.495c0.353-0.131,0.719-0.225,1.064-0.284c6.709-1.141,13.641,6.003,17.224,10.927
			c2.192,3.012,3.886,6.4,5.059,9.959c0.01-0.006,0.017-0.011,0.027-0.017c0.473-0.271,1.117,0.111,0.991,0.681
			c0.044-0.202,7.328-1.586,12.313-2.528v5.122c-0.586,0.102-1.171,0.217-1.758,0.317c-3.164,0.54-7.079,1.936-10.346,1.214
			c0.5,2.72,0.711,5.488,0.549,8.239c-0.109,1.865-0.407,3.693-0.846,5.476c3.355,0.465,8.13-0.881,12.402-2.315v4.3
			c-2.678,0.543-5.361,1.023-8.04,1.373c-2.153,0.281-3.818,0.353-5.308-0.186c-4.324,11.957-15.745,21.05-28.789,21.707
			c-15.259,0.768-29.588-11.963-30.343-27.296c-0.395-8.008,2.567-15.267,7.468-20.982c-2.999-4.883-4.06-11.099-5.886-16.47
			c-2.214-6.513-4.431-13.021-6.341-19.63c-20.08,4.952-42.271-0.018-56.87-15.336c-15.199-15.948-21.185-39.608-14.078-60.374
			c-0.236-0.58-0.273-1.28-0.01-2.086c9.19-28.14,38.359-52.858,69.48-46.081c16.215,3.532,29.644,15.668,37.996,30.497
			c7.336-1.041,14.62-2.297,21.869-3.861c5.421-1.17,11.125-3.452,16.715-3.558C797.87-537.054,797.876-537.07,797.884-537.084z
			 M761.438-408.352c-13.096,2.631-26.39,12.648-27.056,27.054c-0.546,11.831,9.809,22.231,21.468,22.594
			c12.483,0.389,23.98-9.679,25.625-21.981c0.793-5.934-0.534-12.132-3.401-17.36c-1.352-2.465-9.092-13.459-12.88-11.374
			c-0.902,0.497-1.766,0.5-2.483,0.21C762.459-408.796,762.047-408.475,761.438-408.352z M745.071-446.901
			c-3.807,2.938-8.017,5.447-12.602,7.416c-2.512,1.079-5.09,1.978-7.708,2.715c2.884,5.718,5.521,11.547,8.146,17.389
			c2.138,4.756,5.186,9.598,6.777,14.691c5.28-4.258,11.787-7.087,18.502-7.94c-3.001-4.359-4.791-9.787-6.698-14.61
			C748.954-433.653,746.81-440.225,745.071-446.901z M761.081-504.129c-3.363-23.267-23.157-49.499-48.393-50.098
			c-24.917-0.592-46.651,18.775-54.097,41.589c-0.271,0.833-0.761,1.439-1.354,1.855c-5.161,20.574,0.758,43.613,17.091,57.742
			c16.477,14.253,41.351,15.206,60.141,4.985C754.406-458.901,764.279-482.003,761.081-504.129z M798.283-512.513
			c-2.334-5.371-3.164-11.42-2.306-17.408c-4.717,1.668-10.282,2.2-14.834,2.984c-6.374,1.098-12.803,1.864-19.25,2.379
			c3.151,6.736,5.277,13.862,6.178,20.882c5.791-1.931,11.715-3.536,17.573-5.224C789.778-510.092,794.008-511.565,798.283-512.513z
			"/>
		<path fill="#3C3C3B" d="M207.69-113.933c-0.558-3.069-1.057-6.107-1.599-9.115c-4.949-0.307-10.146,1.464-14.907,2.447
			c-5.103,1.054-10.205,2.114-15.313,3.142c-9.021,1.815-18.045,3.611-27.083,5.339c0.286,1.786,0.589,3.569,0.914,5.348
			c0.195,1.065,0.276,2.891,0.578,4.427c0.86,0.378,1.609,1.095,2.032,2.219c1.841,4.886-4.442,8.552-8.13,5.098
			c-1.792-1.679-2.064-4.344-2.517-6.612c-0.582-2.922-1.146-5.85-1.651-8.786c-2.039-11.842-3.032-23.914-1.098-35.842
			c1.553-9.576,5.126-18.71,10.908-26.527c2.893-3.912,6.282-7.37,9.786-10.722c-5.711-3.908-11.293-7.979-16.291-12.804
			c-11.769-11.359-18.657-26.579-18.556-43.041c0.088-14.444,5.182-27.051,13.916-37.848c-0.445-0.345-0.887-0.694-1.323-1.047
			c-13.638-11.02-24.899-29.291-16.208-46.722c1.445-2.899,6.191-1.255,5.372,1.918c-0.521,2.023-0.81,4.002-0.893,5.936
			c6.634,0.115,13.263-0.086,19.871-0.738c6.225-0.615,12.257-1.92,18.356-3.133c-0.145-2.709-0.573-5.406-1.286-8.03
			c-1.606-5.916,7.473-8.955,9.026-3.042c2.617,9.957,2.174,20.236-1.454,29.886c-3.584,9.534-10.464,16.648-17.535,23.706
			c0.241,0.16,0.483,0.323,0.723,0.48c14.158,9.26,29.85,18.175,37.496,34.047c7.637,15.854,3.021,33.723-6.627,47.583
			c-2.946,4.232-6.458,7.985-10.117,11.602c9.004,6.237,17.761,12.714,24.731,21.455c10.463,13.122,18.91,32.865,15.692,49.913
			C213.717-109.241,208.332-110.398,207.69-113.933z M127.231-306.529c6.408-1.26,12.871-2.278,19.312-3.34
			c3.527-0.582,7.055-1.164,10.582-1.745c2.037-0.336,4.154-0.882,6.245-0.972c0.352-2.094,0.533-4.216,0.533-6.34
			c-12.229,3.443-25.728,4.168-38.303,3.263C125.633-312.488,126.218-309.441,127.231-306.529z M131.414-298.263
			c4.857-0.527,9.74-0.83,14.591-1.439c2.753-0.346,5.5-0.75,8.236-1.212c0.675-0.115,3.305-0.349,5.449-0.719
			c0.277-0.522,0.545-1.051,0.797-1.592c1.103-2.369,1.929-4.847,2.497-7.382c-5.445,0.283-11.067,1.685-16.341,2.497
			c-6.311,0.971-12.631,1.99-18.97,2.773C128.64-302.876,129.916-300.518,131.414-298.263z M154.22-293.75
			c1.516-1.791,2.937-3.654,4.18-5.649c-1.868,0.247-3.792,0.367-5.422,0.597c-6.824,0.963-13.853,1.807-20.782,1.676
			c1.373,1.937,2.913,3.79,4.562,5.561C142.706-291.72,148.408-292.55,154.22-293.75z M144.914-284.06
			c2.366-2.355,4.777-4.69,7.046-7.137c-4.561,0.873-9.273,1.153-13.901,0.998C140.217-288.012,142.536-285.962,144.914-284.06z
			 M138.507-259.84c3.865-0.409,7.754-1.687,11.452-2.515c2.709-0.607,5.416-1.238,8.127-1.847
			c-3.905-2.555-7.894-5.015-11.76-7.577C143.235-268.147,140.539-264.275,138.507-259.84z M134.93-247.973
			c2.977-0.279,6.002-1.239,8.841-1.824c3.185-0.657,6.375-1.292,9.562-1.938c5.688-1.153,11.375-2.333,17.079-3.407
			c-3.187-2.761-6.635-5.257-10.187-7.642c-4.141,0.914-8.303,1.75-12.449,2.62c-3.256,0.683-6.55,1.569-9.874,1.729
			c-0.065,0.156-0.137,0.307-0.2,0.464C136.414-254.757,135.498-251.396,134.93-247.973z M134.459-234.289
			c15.187-3.618,30.728-6.865,46.125-9.302c-2.366-3.727-5.21-6.98-8.366-9.92c-6.846,1.407-13.73,2.646-20.599,3.934
			c-3.881,0.727-7.761,1.453-11.646,2.155c-1.763,0.318-3.5,0.717-5.246,0.792c-0.552,3.975-0.642,8.017-0.304,11.992
			C134.434-234.521,134.449-234.406,134.459-234.289z M136.727-223.6c8.36-1.237,16.764-2.237,25.138-3.379
			c7.813-1.065,15.606-2.471,23.429-3.477c-0.44-3.883-1.617-7.739-3.709-11.464c-15.43,3.585-31.315,6.44-47.005,8.809
			C134.971-229.766,135.705-226.603,136.727-223.6z M163.16-213.146c6.97-0.916,13.857-2.245,20.785-3.384
			c1.154-3.959,1.718-8.024,1.5-12.078c-7.534,1.354-15.201,2.213-22.776,3.21c-8.49,1.118-17.029,2.19-25.573,2.841
			c1.514,4.117,3.586,7.921,6.096,11.459C149.854-211.737,156.516-212.274,163.16-213.146z M152.665-200.584
			c3.947-0.709,7.925-1.273,11.872-1.984c4.852-0.875,9.728-2.328,14.618-2.98c1.654-2.845,3.06-5.82,4.12-8.875
			c-12.733,2.654-26.229,4.148-39.25,4.455C146.54-206.607,149.457-203.493,152.665-200.584z M166.473-190.008
			c1.279-1.23,2.541-2.476,3.766-3.754c2.749-2.87,5.312-6.076,7.524-9.509c-3.837,1.004-7.938,1.488-11.788,2.1
			c-4.034,0.641-8.116,1.255-12.203,1.565c1.743,1.523,3.557,2.994,5.447,4.406C161.604-193.417,164.032-191.702,166.473-190.008z
			 M155.757-165.165c4.176-0.653,8.535-0.847,12.62-1.35c4.26-0.524,8.514-1.09,12.768-1.655c-4.374-3.65-9.048-6.91-13.772-10.103
			C163.149-174.169,159.069-169.971,155.757-165.165z M148.378-147.489c7.092-1.424,14.223-2.676,21.334-3.992
			c4.485-0.83,8.976-1.63,13.466-2.437c3.21-0.577,6.534-1.384,9.831-1.83c-2.88-3.86-6.163-7.422-9.767-10.621
			c-4.915,0.621-9.838,1.17-14.761,1.711c-4.527,0.498-9.356,1.371-14.023,1.484c-1.377,2.219-2.591,4.568-3.572,7.103
			C149.805-153.28,148.986-150.408,148.378-147.489z M146.947-132.408c8.995-1.359,18.04-2.432,27.048-3.7
			c9.223-1.297,18.413-2.931,27.646-4.156c-0.398-1.033-0.822-2.064-1.288-3.09c-1.622-3.567-3.565-6.976-5.779-10.199
			c-3.456,0.806-7.101,1.155-10.563,1.715c-4.256,0.689-8.513,1.378-12.772,2.044c-7.695,1.203-15.389,2.473-23.107,3.54
			C147.281-141.698,146.941-137.04,146.947-132.408z M205.695-125.162c-0.848-4.454-1.844-8.845-3.347-13.173
			c-9.342,1.72-18.837,2.831-28.25,4.063c-9.017,1.18-18.075,2.375-27.146,3.093c0.01,0.707,0.028,1.413,0.053,2.117
			c0.186,5.145,0.756,10.268,1.527,15.355c0.023,0.151,0.049,0.301,0.073,0.452c10.034-2.301,20.085-4.519,30.146-6.7
			c5.55-1.203,11.107-2.374,16.661-3.56C198.734-124.224,202.256-125.301,205.695-125.162z"/>
	</g>
</pattern>
<rect opacity="0.3" fill="url(#Nueva_muestra_de_motivo_6)" width="800" height="800"/>
</svg>
