<?xml version="1.0" encoding="utf-8"?>
<!-- Generator: Adobe Illustrator 16.0.0, SVG Export Plug-In . SVG Version: 6.00 Build 0)  -->
<!DOCTYPE svg PUBLIC "-//W3C//DTD SVG 1.1//EN" "http://www.w3.org/Graphics/SVG/1.1/DTD/svg11.dtd">
<svg version="1.1" id="Capa_1" xmlns="http://www.w3.org/2000/svg" xmlns:xlink="http://www.w3.org/1999/xlink" x="0px" y="0px"
	 width="788.03px" height="272.13px" viewBox="0 0 788.03 272.13" enable-background="new 0 0 788.03 272.13" xml:space="preserve">
<line fill="#E1E1DF" x1="0.615" y1="269.49" x2="344.423" y2="269.49"/>
<g>
	<path fill="#E2E2DE" d="M316.937,269.392h-82.012c-1.416,0-2.563-1.147-2.563-2.562s1.147-2.563,2.563-2.563h79.449v-70.395
		h-98.612c-1.415,0-2.562-1.147-2.562-2.563c0-1.415,1.147-2.562,2.562-2.562h101.175c1.416,0,2.563,1.147,2.563,2.562v75.521
		C319.5,268.244,318.353,269.392,316.937,269.392z"/>
	<g>
		<g>
			<g>
				<path fill="#F1F0EE" d="M228.981,196.306l-0.006-5.834c-0.269-4.551,0.226-7.85,2.526-11.198h-7.133
					c0.001-0.001,0.002-0.004,0.003-0.006l-14.877,0.01c3.833,3.757,3.254,6.597,3.296,11.139v5.927h0.002c0,0,0,23.645,0,36.137
					c0,12.491,16.188,12.062,16.188,0C228.981,220.416,228.981,196.306,228.981,196.306z"/>
				<path fill="#D89E3F" d="M215.193,207.063c0,0,0,17.157,0,25.082c0,8.854,11.472,8.548,11.472,0c0-7.639,0-25.082,0-25.082
					H215.193z"/>
			</g>
		</g>
	</g>
	<g>
		<g>
			<g>
				<path fill="#F1F0EE" d="M266,196.306l-0.006-5.834c-0.27-4.551,0.226-7.85,2.526-11.198h-7.133
					c0.001-0.001,0.002-0.004,0.004-0.006l-14.878,0.01c3.833,3.757,3.255,6.597,3.296,11.139v5.927h0.002c0,0,0,23.645,0,36.137
					c0,12.491,16.189,12.062,16.189,0C266,220.416,266,196.306,266,196.306z"/>
				<path fill="#BF3852" d="M252.212,207.063c0,0,0,17.157,0,25.082c0,8.854,11.472,8.548,11.472,0c0-7.639,0-25.082,0-25.082
					H252.212z"/>
			</g>
		</g>
	</g>
	<g>
		<g>
			<g>
				<path fill="#F1F0EE" d="M303.589,196.306l-0.006-5.834c-0.269-4.551,0.226-7.85,2.526-11.198h-7.133
					c0.001-0.001,0.003-0.004,0.004-0.006l-14.877,0.01c3.832,3.757,3.254,6.597,3.295,11.139v5.927h0.002c0,0,0,23.645,0,36.137
					c0,12.491,16.188,12.062,16.188,0C303.589,220.416,303.589,196.306,303.589,196.306z"/>
				<path fill="#739459" d="M289.801,207.063c0,0,0,17.157,0,25.082c0,8.854,11.472,8.548,11.472,0c0-7.639,0-25.082,0-25.082
					H289.801z"/>
			</g>
		</g>
	</g>
	<path fill="#E2E2DE" d="M319.025,269.503c-35.945,0-78.164,0-97.959,0v-2.641c0-5.27,4.272-9.542,9.541-9.542h78.877
		c5.27,0,9.541,4.272,9.541,9.542V269.503z"/>
</g>
<g>
	<g>
		<path fill="#403B36" d="M741.25,243.546c0,1.03-0.834,1.866-1.863,1.866l0,0c-1.031,0-1.865-0.836-1.865-1.866V231.03
			c0-1.031,0.834-1.865,1.865-1.865l0,0c1.029,0,1.863,0.834,1.863,1.865V243.546z"/>
		<path fill="#403B36" d="M741.25,231.109c0,1.075-0.87,1.945-1.943,1.945h-31.036c-1.074,0-1.944-0.87-1.944-1.945l0,0
			c0-1.072,0.87-1.944,1.944-1.944h31.036C740.38,229.165,741.25,230.037,741.25,231.109L741.25,231.109z"/>
		<g>
			<g>
				<path fill="#D89E3F" d="M723.174,210.964c-1.135,1.041-2.917,0.964-3.955-0.171l-6.273-6.843
					c-1.041-1.136-0.961-2.917,0.173-3.955l3.186-2.923c1.134-1.04,2.915-0.959,3.953,0.174l6.274,6.842
					c1.04,1.136,0.963,2.917-0.173,3.958L723.174,210.964z"/>
			</g>
			<g>
				<path fill="#403B36" d="M773.085,167.212c-0.939,0.863-2.416,0.798-3.277-0.143l-8.902-9.711
					c-0.859-0.94-0.797-2.416,0.144-3.278l13.361-12.206c0.94-0.862,2.415-0.798,3.277,0.145l8.903,9.713
					c0.861,0.939,0.796,2.415-0.144,3.278L773.085,167.212z"/>
			</g>
			<g>
				<g>
					<path fill="#F2F1EE" d="M741.054,203.551c-1.137,1.04-2.916,0.962-3.955-0.172l-15.213-16.596
						c-1.041-1.135-0.962-2.917,0.173-3.957l36.101-33.083c1.135-1.04,2.914-0.963,3.954,0.172l15.211,16.595
						c1.041,1.135,0.963,2.915-0.172,3.956L741.054,203.551z"/>
				</g>
			</g>
			<g>
				<g>
					<path fill="#403B36" d="M732.519,211.371c-1.135,1.041-2.916,0.964-3.954-0.171l-15.211-16.596
						c-1.039-1.134-0.961-2.916,0.172-3.956l8.733-7.831l18.991,20.724L732.519,211.371z"/>
				</g>
			</g>
			<path fill="#E8E9E5" d="M782.262,215.573c0-24.458-30.359-31.654-30.359-31.654c-1.405-0.63-2.556,0.115-2.556,1.655v5.978
				c0,1.54,1.147,3.318,2.55,3.952c0,0,18.789,5.38,18.789,20.207c0,14.826-14.106,26.956-23.871,26.956c-5.398,0-40.953,0-40.953,0
				c-1.54,0-2.799,1.261-2.799,2.8v6.53c0,1.541,1.259,2.801,2.799,2.801c0,0,26.021,0,40.936,0
				C763.343,254.798,782.262,240.032,782.262,215.573z"/>
			<path fill="#403B36" d="M766.142,268.793c0,1.54-1.259,2.8-2.799,2.8h-71.846c-1.538,0-2.799-1.26-2.799-2.8v-0.935
				c0-1.538,1.261-2.799,2.799-2.799h71.846c1.54,0,2.799,1.261,2.799,2.799V268.793z"/>
			<circle fill="#D89E3F" cx="753.393" cy="187.655" r="12.764"/>
			<circle fill="#403B36" cx="753.393" cy="187.655" r="8.916"/>
			<path fill="#F2F1EE" d="M769.822,271.593c-2.365,0-42.886,0-42.886,0v-28.934h21.334l22.053,27.339
				C770.323,269.998,771.728,271.593,769.822,271.593z"/>
		</g>
		<circle fill="#DABF59" cx="753.393" cy="187.655" r="4.655"/>
		<circle fill="#403B36" cx="734.746" cy="249.591" r="2.775"/>
		<circle fill="#403B36" cx="733.602" cy="267.836" r="2.775"/>
	</g>
	<g>
		<path fill="#E8E9E5" d="M582.086,269.688c-1.42,0-2.572-1.15-2.572-2.57v-52.386h-69.74v52.386c0,1.42-1.15,2.57-2.57,2.57
			s-2.571-1.15-2.571-2.57v-54.957c0-1.42,1.151-2.571,2.571-2.571h74.883c1.42,0,2.57,1.151,2.57,2.571v54.957
			C584.656,268.538,583.506,269.688,582.086,269.688z"/>
		<path fill="#E8E9E5" d="M592.369,271.354c-17.029,0-53.992,0-98.27,0l0,0c0-4.404,3.571-7.976,7.977-7.976h82.317
			C588.799,263.378,592.369,266.949,592.369,271.354L592.369,271.354z"/>
		<g>
			<circle fill="#403B36" cx="531.682" cy="250.781" r="6.803"/>
			<rect x="530.455" y="214.21" fill="#403B36" width="2.455" height="31.2"/>
		</g>
		<g>
			<circle fill="#403B36" cx="494.707" cy="236.345" r="6.803"/>
			
				<rect x="509.674" y="207.42" transform="matrix(0.6354 0.7722 -0.7722 0.6354 358.4875 -313.1963)" fill="#403B36" width="2.456" height="31.201"/>
		</g>
		<g>
			<circle fill="#403B36" cx="545.289" cy="250.781" r="6.803"/>
			<rect x="544.061" y="214.21" fill="#403B36" width="2.455" height="31.2"/>
		</g>
		<g>
			<circle fill="#403B36" cx="558.895" cy="250.781" r="6.803"/>
			<rect x="557.666" y="214.21" fill="#403B36" width="2.456" height="31.2"/>
		</g>
		<g>
			<circle fill="#403B36" cx="572.5" cy="250.781" r="6.803"/>
			<rect x="571.272" y="214.21" fill="#403B36" width="2.456" height="31.2"/>
		</g>
	</g>
	<g>
		<g>
			<path fill="#F1F0EE" d="M610.276,125.506c-3.591-3.59-5.354-5.669-6.087-9.636l-15.135,15.135
				c3.969,0.733,6.047,2.496,9.637,6.086c3.418,3.419,9.221,9.228,12.948,12.957l11.593-11.596
				C619.506,134.727,613.695,128.924,610.276,125.506z"/>
		</g>
		<g>
			<path fill="#F1F0EE" d="M648.586,107.754c0-6.581,0.291-10.103,3.254-14.413h-27.746c2.962,4.31,3.254,7.832,3.254,14.413
				c0,6.267-0.007,16.912-0.007,23.744h21.253C648.594,124.667,648.588,114.021,648.586,107.754z"/>
		</g>
		<g>
			<path fill="#F1F0EE" d="M681.637,190.521c1.775-1.775,2.804-2.648,4.765-3.014l-7.481-7.482
				c-0.364,1.962-1.238,2.989-3.013,4.766c-1.688,1.688-23.439,23.438-25.282,25.277l5.734,5.733
				C658.2,213.959,679.949,192.209,681.637,190.521z"/>
		</g>
		<circle fill="#F1F0EE" cx="637.968" cy="214.092" r="30.546"/>
		<circle fill="#F1F0EE" cx="637.968" cy="158.647" r="30.546"/>
		<path fill="#F1F0EE" d="M671.472,271.155c-20.194,0-48.601,0-67.009,0c0-18.503,15.001-33.504,33.505-33.504
			S671.472,252.652,671.472,271.155z"/>
		<path fill="#BF3852" d="M645.354,242.448v-5.68c9.108-2.886,15.839-11.102,16.532-20.985c-15.023-0.287-32.056-6.991-47.204-5.306
			c-0.181,1.182-0.302,2.384-0.302,3.614c0,10.633,6.977,19.629,16.599,22.677v5.68c-10.842,3.118-18.783,13.094-18.783,24.941
			c14.271,0,36.29,0,51.945,0C664.141,255.542,656.199,245.566,645.354,242.448z"/>
		<circle fill="#BF3852" cx="646.438" cy="205.331" r="4.877"/>
		<circle fill="#BF3852" cx="632.244" cy="196.182" r="3.658"/>
		<circle fill="#BF3852" cx="638.167" cy="180.979" r="4.877"/>
		<circle fill="#BF3852" cx="647.802" cy="171.043" r="2.823"/>
		<circle fill="#BF3852" cx="628.586" cy="165.692" r="2.824"/>
		<circle fill="#BF3852" cx="632.244" cy="138.985" r="2.279"/>
		<circle fill="#BF3852" cx="640.448" cy="155.799" r="2.281"/>
	</g>
</g>
<g>
	<g>
		<path fill="#E2E2DE" d="M77.013,269.511h82.012c1.416,0,2.563-1.147,2.563-2.562s-1.147-2.563-2.563-2.563H79.575V70.99h98.612
			c1.415,0,2.562-1.147,2.562-2.563c0-1.415-1.147-2.562-2.562-2.562H77.013c-1.416,0-2.563,1.147-2.563,2.562v198.521
			C74.449,268.363,75.597,269.511,77.013,269.511z"/>
		<path fill="#E2E2DE" d="M74.925,269.622c35.945,0,78.164,0,97.959,0v-2.641c0-5.27-4.272-9.542-9.541-9.542H84.466
			c-5.27,0-9.541,4.272-9.541,9.542V269.622z"/>
	</g>
	<g>
		<path fill="#F1F0EE" d="M146.163,87.808l-0.009-17.996c-0.376-6.346,0.314-10.943,3.522-15.614h-9.945
			c0.001-0.003,0.004-0.004,0.006-0.007l-20.742,0.015c5.342,5.236,4.537,9.195,4.592,15.527l0.004,18.075
			c-16.646,4.946-28.095,20.173-28.095,37.725c0,10.337,4.038,19.73,10.576,26.763h28.802h28.808
			c6.535-7.032,10.57-16.426,10.57-26.763C174.252,107.98,162.806,92.754,146.163,87.808z"/>
		<path fill="#D89E3F" d="M104.942,117.17c-0.973,3.029-1.503,6.258-1.503,9.61c0,6.77,2.159,13.022,5.801,18.151h25.711h25.562
			c3.642-5.129,5.801-11.382,5.801-18.151c0-4.891-1.119-9.519-3.109-13.646C146.525,109.719,112.5,109.667,104.942,117.17z"/>
		<g>
			<g>
				<path fill="#E6E7E2" d="M131.253,128.497c0-1.124-0.907-2.037-2.033-2.037c-1.12,0-2.033,0.913-2.033,2.037
					c0,1.121,0.913,2.029,2.033,2.029C130.347,130.526,131.253,129.618,131.253,128.497z"/>
				<path fill="#E6E7E2" d="M136.907,119.004c0-1.124-0.907-2.037-2.033-2.037c-1.12,0-2.033,0.913-2.033,2.037
					c0,1.121,0.913,2.029,2.033,2.029C136,121.033,136.907,120.125,136.907,119.004z"/>
				<g>
					<g>
						<ellipse fill="#E6E7E2" cx="132.508" cy="137.432" rx="3.287" ry="3.293"/>
						<path fill="#E6E7E2" d="M142.459,126.456c0,1.125,0.911,2.037,2.036,2.037c1.123,0,2.031-0.912,2.031-2.037
							c0-1.123-0.908-2.031-2.031-2.031C143.37,124.425,142.459,125.333,142.459,126.456z"/>
					</g>
				</g>
			</g>
		</g>
	</g>
	<circle fill="#F1F0EE" cx="137.104" cy="40.884" r="7.884"/>
	<circle fill="#F1F0EE" cx="129.221" cy="21.268" r="5.948"/>
	<circle fill="#F1F0EE" cx="140.295" cy="5.294" r="4.232"/>
	<g>
		<path fill="#F1F0EE" d="M136.15,227.267h0.079V217.22h-7.116h-7.036v10.047c0,0-12.642,2.761-15.639,11.261
			c-2.996,8.499,4.66,18.608,4.66,18.608h18.015h15.324h3.474c0,0,7.292-9.309,3.878-18.608
			C148.375,229.227,136.15,227.267,136.15,227.267z"/>
		<path fill="#D89E3F" d="M112.803,238.603c7.354,0,24.57,0,32.675,0c5.935,6.903-1.555,15.953-1.555,15.953h-27.626
			C116.297,254.556,108.217,248.545,112.803,238.603z"/>
		<path fill="#D89E3F" d="M130.597,245.524c0,0.58-0.472,1.055-1.055,1.055l0,0c-0.583,0-1.053-0.475-1.053-1.055v-29.792
			c0-0.58,0.47-1.055,1.053-1.055l0,0c0.583,0,1.055,0.475,1.055,1.055V245.524z"/>
		<path fill="#BF3852" d="M129.113,216.32c-3.53-0.001-11.732-3.145-7.895-14.073c2.679-7.625,7.02-8.444,7.254-19
			C138.924,195.68,145.103,216.332,129.113,216.32z"/>
		<path fill="#D89E3F" d="M129.267,216.32c-2.277-0.001-7.573-2.073-5.095-9.283c1.727-5.026,4.528-5.567,4.68-12.529
			C135.599,202.705,139.585,216.328,129.267,216.32z"/>
	</g>
</g>
</svg>
